<svg width="335" height="261" viewBox="0 0 335 261" fill="none" xmlns="http://www.w3.org/2000/svg">
<path d="M41.4865 189.181C45.2585 187.242 49.6928 186.991 53.8752 187.68C56.1211 188.054 58.4606 188.721 59.9939 190.408C61.5272 192.096 61.808 195.053 60.0515 196.496C59.0077 197.358 57.5536 197.487 56.2003 197.473C52.925 197.437 49.2897 196.862 46.6766 198.822C45.1793 199.949 44.1859 201.809 42.4079 202.362C40.6298 202.914 38.6862 201.873 37.7648 200.301C36.9133 198.666 36.7252 196.766 37.2393 194.996C37.4501 193.766 37.9431 192.601 38.6798 191.592C39.4166 190.583 40.3771 189.758 41.4865 189.181Z" fill="#FF7800"/>
<path d="M32.8556 172.568C35.1591 175.849 39.6366 174.758 41.717 172.762C43.7974 170.766 44.6684 167.852 45.4675 165.088C47.2887 158.763 49.1315 152.165 47.771 145.704C47.4466 143.753 46.587 141.929 45.2875 140.435C44.6308 139.696 43.7909 139.143 42.8522 138.831C41.9134 138.518 40.9087 138.457 39.939 138.654C37.6786 139.25 36.2821 141.454 35.2671 143.558C32.2773 149.749 30.7107 156.528 30.6816 163.401C30.6816 166.595 31.0488 169.948 32.8412 172.59" fill="#FF7800"/>
<path d="M26.5277 177.277C29.0328 174.312 29.5079 169.998 28.3921 166.286C27.2764 162.574 24.7929 159.423 21.8703 156.846C18.4602 153.82 14.4919 151.487 10.187 149.975C8.52094 149.301 6.72775 148.998 4.93207 149.085C4.03523 149.136 3.16441 149.404 2.39536 149.867C1.6263 150.33 0.982299 150.973 0.519356 151.741C-0.711596 154.082 0.468965 156.917 1.74311 159.236C3.99081 163.315 6.5566 167.211 9.41676 170.888C11.7203 173.846 14.355 176.76 17.8607 178.067C21.3664 179.374 25.0088 179.252 26.902 176.854" fill="#FF7800"/>
<path d="M32.7034 222.062C32.823 221.575 32.8929 221.077 32.9121 220.576C33.0129 219.485 33.1497 218.128 33.308 216.505C33.509 214.5 33.8141 212.506 34.2222 210.532C34.7552 208.132 35.4773 205.777 36.3818 203.49C37.2753 201.207 38.487 199.06 39.9811 197.115C41.2008 195.532 42.7602 194.242 44.545 193.338C45.761 192.749 47.0634 192.356 48.4034 192.175C48.9062 192.155 49.4056 192.083 49.8935 191.96C49.3912 191.904 48.8841 191.904 48.3818 191.96C46.9944 192.065 45.6368 192.415 44.3722 192.994C42.4967 193.879 40.8512 195.183 39.5636 196.806C38.0041 198.779 36.7452 200.971 35.8275 203.31C34.8999 205.636 34.1773 208.038 33.668 210.489C33.2806 212.486 33.0137 214.505 32.8689 216.534C32.7393 218.264 32.6962 219.664 32.6674 220.633C32.6277 221.109 32.6398 221.588 32.7034 222.062Z" fill="#263238"/>
<path d="M32.9862 218.932C33.0132 218.693 33.0132 218.452 32.9862 218.214V216.232C32.9862 214.517 32.9862 212.033 33.0725 208.967C33.2237 202.829 33.7924 196.224 34.7786 186.913C35.7432 178.162 37.0461 167.967 38.4211 161.348C38.709 159.841 39.0113 158.477 39.2849 157.299C39.5584 156.122 39.7816 155.081 40.0047 154.248C40.2279 153.415 40.3503 152.812 40.4726 152.331C40.5438 152.098 40.5849 151.857 40.595 151.613C40.4847 151.817 40.4023 152.034 40.3503 152.259C40.1991 152.755 40.0119 153.387 39.7744 154.155C39.5368 154.923 39.2561 155.993 38.961 157.184C38.6658 158.376 38.3203 159.719 37.9963 161.219C36.3013 169.043 35.0229 176.951 34.1667 184.91C33.1445 194.243 32.6838 202.736 32.6406 208.881C32.6406 211.961 32.6406 214.452 32.7486 216.168C32.799 216.972 32.8422 217.604 32.871 218.142C32.8732 218.409 32.912 218.675 32.9862 218.932Z" fill="#263238"/>
<path d="M33.0209 202.548C33.0759 201.86 33.0759 201.168 33.0209 200.48C32.9037 198.604 32.6923 196.735 32.3875 194.88C31.9361 192.13 31.3281 189.407 30.5662 186.725C29.6679 183.433 28.5176 180.214 27.1253 177.098C24.7423 171.331 21.3274 166.045 17.0474 161.497C16.3058 160.72 15.5173 159.989 14.6862 159.308C14.3191 159.006 14.0024 158.698 13.6712 158.461L12.757 157.829C12.2241 157.405 11.6585 157.023 11.0654 156.688C10.9646 156.817 13.5345 158.332 16.781 161.77C20.9033 166.36 24.2115 171.616 26.5638 177.313C27.921 180.421 29.0704 183.616 30.0048 186.876C30.8974 189.877 31.4949 192.619 31.9412 194.952C32.3875 197.285 32.6178 199.181 32.769 200.502C32.8047 201.189 32.8889 201.872 33.0209 202.548Z" fill="#263238"/>
<path d="M17.1484 231.451L18.7897 253.943H47.7639L49.4123 231.451H17.1484Z" fill="#263238"/>
<path d="M52.8671 222.586H14.3477V231.452H52.8671V222.586Z" fill="#263238"/>
<path d="M14.3477 253.082V255.537H16.1545H52.2336V253.082H14.3477Z" fill="#455A64"/>
<path d="M17.9323 259.866L16.1543 255.537H50.8513L48.7781 259.866H17.9323Z" fill="#455A64"/>
<path d="M48.8712 238.838C48.8352 238.911 48.7892 238.978 48.7345 239.039C48.6193 239.197 48.4825 239.383 48.3025 239.613L46.6181 241.767L46.5389 241.867L46.4669 241.767L42.3205 236.024H42.5581L38.4765 241.767L38.3469 241.946L38.203 241.781L33.3656 236.038H33.6463C33.5599 236.138 33.4663 236.253 33.3799 236.368L29.0608 241.781L28.9168 241.961L28.7873 241.774L24.6985 236.031H24.936C22.9277 238.321 21.2144 240.259 19.8971 241.774L19.8107 241.875L19.7459 241.76C19.0764 240.654 18.5509 239.764 18.1694 239.125C18.0038 238.838 17.8671 238.608 17.7663 238.407C17.7115 238.33 17.6679 238.245 17.6367 238.156C17.6367 238.156 17.7015 238.228 17.8095 238.378L18.2558 239.053L19.9115 241.645H19.7531L24.6985 235.858L24.8281 235.715L24.936 235.873L29.0608 241.616H28.7729L33.092 236.196L33.3584 235.866L33.5023 235.693L33.6391 235.858C35.338 237.876 36.9648 239.821 38.4693 241.602H38.1958L42.3205 235.858L42.4429 235.693L42.5581 235.858L46.6181 241.645H46.4741L48.2306 239.556L48.6985 239.01C48.8088 238.862 48.8664 238.804 48.8712 238.838Z" fill="#E0E0E0"/>
<path d="M49.8142 231.301C49.8142 231.401 42.5509 231.48 33.6031 231.48C24.6553 231.48 17.3848 231.401 17.3848 231.301C17.3848 231.2 24.6409 231.121 33.6031 231.121C42.5653 231.121 49.8142 231.2 49.8142 231.301Z" fill="#455A64"/>
<path d="M51.2754 255.781C51.2754 255.882 43.3569 255.961 33.6533 255.961C23.9497 255.961 16.0312 255.882 16.0312 255.781C16.0312 255.681 23.9497 255.602 33.6533 255.602C43.3569 255.602 51.2754 255.681 51.2754 255.781Z" fill="#263238"/>
<path d="M249.409 164.973H316.737C319.625 164.973 322.396 166.117 324.438 168.154C326.481 170.191 327.628 172.954 327.628 175.835V260.275H238.539V175.835C238.539 172.958 239.684 170.198 241.721 168.162C243.759 166.125 246.524 164.978 249.409 164.973Z" fill="#455A64"/>
<path d="M320.127 165.461C320.235 165.461 320.314 186.675 320.314 212.843C320.314 239.011 320.235 260.225 320.127 260.225C320.019 260.225 319.939 239.011 319.939 212.843C319.939 186.675 320.026 165.461 320.127 165.461Z" fill="#263238"/>
<path d="M276.234 61.5134C284.427 73.2117 289.125 86.9881 289.781 101.243C290.199 110.791 288.91 120.964 293.453 129.378C299.974 141.453 314.076 141.044 318.396 154.059C320.274 159.724 316.812 172.179 315.876 178.073C314.818 184.764 318.921 190.386 317.863 197.084C316.891 203.222 312.284 207.601 306.755 210.458C301.832 213 297.282 213.072 292.164 210.954C282.403 206.926 274.283 202.676 267.336 194.751C257.575 183.623 254.624 168.188 252.939 153.521C249.263 121.085 250.007 88.3017 255.149 56.0645" fill="#263238"/>
<path d="M297.1 212.325C297.201 212.293 297.305 212.266 297.41 212.246C297.618 212.196 297.935 212.146 298.338 212.024C301.375 211.2 304.096 209.493 306.156 207.121C306.931 206.216 307.522 205.17 307.898 204.041C308.257 202.756 308.462 201.433 308.51 200.099C308.562 197.024 308.248 193.954 307.574 190.953C306.948 187.694 306.134 184.219 305.889 180.45C305.77 178.526 305.908 176.595 306.3 174.707C306.751 172.746 307.362 170.825 308.128 168.964C308.912 167.054 309.599 165.106 310.187 163.127C310.797 161.104 310.969 158.975 310.691 156.881C310.355 154.797 309.556 152.815 308.351 151.08C307.174 149.392 305.804 147.845 304.27 146.471C301.297 143.7 298.079 141.446 295.329 138.847C290.424 134.32 286.465 128.869 283.682 122.809C282.603 120.489 281.708 118.089 281.004 115.63C280.658 114.56 280.457 113.526 280.212 112.593C279.967 111.66 279.859 110.784 279.701 110.009C279.478 108.436 279.305 107.223 279.262 106.419C279.262 106.017 279.204 105.701 279.19 105.471C279.176 105.242 279.19 105.148 279.19 105.148C279.19 105.148 279.19 105.256 279.24 105.471C279.291 105.687 279.305 106.01 279.356 106.412C279.42 107.238 279.615 108.451 279.859 110.002C280.025 110.777 280.205 111.638 280.399 112.579C280.594 113.519 280.86 114.524 281.22 115.594C281.943 118.028 282.85 120.404 283.934 122.701C286.736 128.706 290.691 134.106 295.574 138.596C298.309 141.137 301.534 143.413 304.536 146.199C306.091 147.593 307.48 149.161 308.675 150.872C309.912 152.654 310.731 154.691 311.072 156.831C311.36 158.975 311.186 161.156 310.561 163.227C310 165.266 309.215 167.198 308.488 169.093C307.728 170.932 307.117 172.828 306.66 174.764C306.271 176.626 306.133 178.531 306.249 180.429C306.444 184.147 307.279 187.608 307.898 190.889C308.56 193.915 308.86 197.009 308.79 200.107C308.73 201.462 308.512 202.806 308.143 204.112C307.743 205.262 307.13 206.326 306.336 207.25C305.066 208.719 303.521 209.926 301.786 210.803C300.705 211.376 299.557 211.81 298.367 212.096C297.951 212.204 297.528 212.281 297.1 212.325Z" fill="#455A64"/>
<path d="M163.07 237.975L197.623 221.614C197.623 221.614 211.077 156.463 213.626 151.575C216.174 146.686 226.799 142.457 226.799 142.457L225.021 230.674L221.854 251.041L173.134 255.643L163.07 237.975Z" fill="#FF7800"/>
<path d="M133.592 253.41C133.398 253.41 132.44 253.999 133.239 255.514C134.038 257.028 139.898 262.032 141.618 260.288C143.339 258.543 140.711 256.418 140.711 256.418L133.592 253.41Z" fill="#FFBE9D"/>
<path d="M140.957 256.483C140.957 256.483 148.026 257.373 150.74 258.407C153.698 259.527 157.298 258.759 159.716 257.129C161.091 256.216 162.373 255.173 163.546 254.013L172.559 253.87C173.854 252.357 174.704 250.515 175.014 248.55C175.324 246.584 175.082 244.572 174.315 242.735C173.833 241.457 173.137 240.27 172.256 239.224C171.184 238.069 169.492 237.135 166.569 236.633L155.865 238.937C155.865 238.937 139.309 237.753 136.328 239.146C136.328 239.146 132.621 241.335 131.477 242.254C131.045 242.606 129.727 246.813 132.427 249.002C132.427 249.002 130.08 250.862 131.354 252.535L131.959 253.252C131.959 253.252 130.382 255.291 131.196 256.182C132.009 257.072 139.114 261.207 141.641 260.231C144.168 259.254 142.08 256.892 140.957 256.462" fill="#FFBE9D"/>
<path d="M134.205 245.363C134.503 245.451 134.797 245.556 135.083 245.679C135.637 245.887 136.451 246.189 137.473 246.512C137.977 246.677 138.538 246.842 139.15 247C139.762 247.158 140.417 247.294 141.101 247.517C141.845 247.72 142.518 248.125 143.044 248.687C143.335 248.999 143.536 249.382 143.627 249.798C143.719 250.213 143.696 250.645 143.563 251.049C143.394 251.456 143.085 251.789 142.692 251.99C142.322 252.17 141.922 252.282 141.511 252.32C140.758 252.364 140.002 252.323 139.258 252.198C138.012 251.997 136.788 251.68 135.601 251.25C134.586 250.891 133.787 250.532 133.233 250.317C132.939 250.211 132.657 250.076 132.391 249.915C132.692 249.995 132.987 250.093 133.276 250.209C133.838 250.41 134.651 250.719 135.666 251.049C136.838 251.446 138.042 251.741 139.265 251.932C139.979 252.044 140.703 252.078 141.425 252.033C141.798 251.999 142.162 251.897 142.497 251.731C142.823 251.561 143.079 251.281 143.217 250.941C143.334 250.593 143.356 250.22 143.283 249.859C143.21 249.499 143.043 249.164 142.8 248.888C142.309 248.365 141.684 247.985 140.993 247.79C140.331 247.567 139.668 247.424 139.064 247.251C138.459 247.079 137.89 246.9 137.386 246.727C136.364 246.376 135.565 246.009 135.018 245.801C134.734 245.681 134.461 245.534 134.205 245.363Z" fill="#EB996E"/>
<path d="M134.838 240.273C135.136 240.356 135.427 240.462 135.709 240.589C136.271 240.805 137.077 241.113 138.085 241.444C139.093 241.774 140.309 242.162 141.684 242.47C142.438 242.588 143.155 242.878 143.779 243.317C144.109 243.591 144.327 243.977 144.391 244.401C144.454 244.829 144.391 245.265 144.211 245.658C144.028 246.032 143.769 246.365 143.45 246.634C143.132 246.903 142.761 247.104 142.361 247.223C141.634 247.458 140.862 247.52 140.108 247.402C138.88 247.157 137.675 246.807 136.508 246.354L134.126 245.521C133.83 245.429 133.541 245.316 133.262 245.184C133.568 245.235 133.869 245.312 134.162 245.414L136.573 246.132C137.746 246.548 138.949 246.874 140.172 247.108C140.885 247.21 141.612 247.146 142.296 246.921C142.66 246.81 142.996 246.625 143.285 246.378C143.574 246.131 143.808 245.827 143.973 245.485C144.143 245.159 144.201 244.786 144.137 244.424C144.073 244.062 143.892 243.731 143.62 243.483C143.031 243.073 142.357 242.8 141.648 242.686C140.273 242.341 139.057 241.968 138.049 241.594C137.041 241.221 136.249 240.876 135.702 240.647C135.404 240.546 135.116 240.421 134.838 240.273Z" fill="#EB996E"/>
<path d="M138.243 241.71C138.096 241.241 137.987 240.76 137.919 240.274C137.757 239.807 137.639 239.326 137.566 238.838C137.91 239.211 138.133 239.679 138.207 240.18C138.387 240.672 138.4 241.21 138.243 241.71Z" fill="#EB996E"/>
<path d="M163.171 241.939L156.872 239.555C156.872 239.555 139.387 231.414 139.092 231.859C138.797 232.305 137.846 232.247 138.055 234.372C138.264 236.497 148.45 240.79 148.774 241.551C149.098 242.312 148.558 246.017 152.323 248.68C156.087 251.344 158.801 251.408 158.801 251.408" fill="#FFBE9D"/>
<path d="M158.802 251.344H158.637L158.205 251.301C157.65 251.213 157.104 251.081 156.571 250.906C154.608 250.24 152.793 249.198 151.229 247.841C150.17 246.851 149.42 245.577 149.07 244.172C148.889 243.4 148.764 242.615 148.695 241.825C148.683 241.734 148.661 241.645 148.631 241.559C148.59 241.49 148.533 241.431 148.465 241.387C148.301 241.268 148.13 241.157 147.954 241.057C147.601 240.848 147.234 240.647 146.845 240.446C145.334 239.635 143.714 238.824 142.087 237.891C141.253 237.422 140.443 236.912 139.661 236.361C139.256 236.078 138.876 235.761 138.524 235.414C138.337 235.235 138.174 235.032 138.041 234.811C137.97 234.689 137.921 234.555 137.897 234.416C137.883 234.287 137.883 234.157 137.897 234.028C137.84 233.508 137.932 232.983 138.164 232.513C138.307 232.292 138.496 232.103 138.718 231.961C138.808 231.902 138.891 231.832 138.963 231.752C138.963 231.752 138.963 231.752 139.02 231.688C139.055 231.661 139.099 231.649 139.143 231.652C139.183 231.647 139.225 231.647 139.265 231.652L139.46 231.702C140.403 231.989 141.274 232.37 142.145 232.729C143.872 233.447 145.521 234.165 147.09 234.882C150.236 236.318 153.043 237.596 155.404 238.702C155.995 238.967 156.549 239.247 157.082 239.477L158.622 240.08L161.091 241.057L162.646 241.681L163.042 241.853C163.136 241.853 163.179 241.911 163.179 241.918C163.179 241.925 163.128 241.918 163.035 241.875L162.624 241.739L161.048 241.157L158.557 240.274L157.002 239.692C156.455 239.47 155.901 239.197 155.311 238.931L146.975 235.177C145.398 234.459 143.75 233.741 142.022 233.023C141.158 232.671 140.28 232.305 139.373 232.011L139.215 231.975H139.157C139.157 231.975 139.157 231.932 139.157 231.903C139.359 232.032 139.208 231.946 139.251 231.975C139.165 232.081 139.063 232.173 138.948 232.248C138.756 232.365 138.594 232.525 138.473 232.714C138.271 233.136 138.191 233.606 138.243 234.071C138.238 234.296 138.29 234.518 138.394 234.717C138.515 234.917 138.66 235.1 138.826 235.263C139.167 235.597 139.535 235.902 139.927 236.175C140.705 236.735 141.518 237.223 142.325 237.689C143.944 238.623 145.55 239.441 147.068 240.252C147.45 240.461 147.788 240.662 148.184 240.884C148.37 240.99 148.55 241.105 148.724 241.229C148.829 241.299 148.913 241.396 148.969 241.509C149.005 241.613 149.029 241.722 149.041 241.832C149.109 242.614 149.227 243.391 149.394 244.158C149.723 245.526 150.437 246.771 151.452 247.747C152.986 249.101 154.762 250.155 156.686 250.856C157.21 251.04 157.746 251.187 158.291 251.294C158.478 251.337 158.622 251.351 158.723 251.366L158.802 251.344Z" fill="#EB996E"/>
<path d="M139.517 252.162C139.749 252.19 139.975 252.256 140.186 252.356C140.778 252.593 141.333 252.912 141.835 253.304C142.185 253.576 142.503 253.887 142.785 254.23C142.962 254.423 143.098 254.649 143.186 254.896C143.274 255.143 143.311 255.404 143.296 255.666C143.239 255.963 143.099 256.238 142.893 256.46C142.687 256.682 142.422 256.842 142.13 256.922C141.529 257.086 140.891 257.066 140.302 256.864C138.299 256.273 136.357 255.497 134.5 254.546C133.94 254.255 133.397 253.933 132.873 253.584C132.671 253.468 132.485 253.329 132.318 253.167C132.533 253.252 132.738 253.357 132.93 253.483C133.319 253.706 133.88 254.014 134.593 254.359C136.453 255.245 138.379 255.989 140.352 256.584C140.89 256.77 141.471 256.793 142.022 256.649C142.264 256.585 142.484 256.457 142.658 256.277C142.832 256.097 142.953 255.873 143.008 255.63C143.024 255.399 142.994 255.167 142.92 254.948C142.846 254.728 142.729 254.526 142.576 254.352C142.312 254.017 142.013 253.711 141.684 253.44C141.018 252.925 140.29 252.495 139.517 252.162Z" fill="#EB996E"/>
<g opacity="0.3">
<path d="M221.61 251.042C215.952 232.01 210.964 207.501 205.306 188.469C203.232 206.036 205.824 229.232 209.063 246.62C209.445 248.658 209.617 250.654 211.223 251.997L221.61 251.042Z" fill="black"/>
</g>
<path d="M212.345 237.976C212.266 237.976 212.028 236.734 211.258 234.832C210.805 233.723 210.263 232.652 209.638 231.63C208.858 230.389 207.966 229.221 206.975 228.141C205.968 227.072 204.865 226.098 203.678 225.233C202.705 224.531 201.674 223.911 200.597 223.381C198.754 222.476 197.516 222.146 197.537 222.074C197.837 222.109 198.132 222.179 198.416 222.282C198.757 222.368 199.091 222.479 199.416 222.613C199.857 222.767 200.29 222.944 200.712 223.144C201.82 223.65 202.881 224.256 203.879 224.953C205.097 225.818 206.228 226.799 207.255 227.882C208.262 228.99 209.159 230.192 209.933 231.472C210.555 232.517 211.083 233.615 211.51 234.753C211.704 235.234 211.819 235.686 211.942 236.081C212.053 236.416 212.139 236.759 212.201 237.107C212.277 237.392 212.325 237.682 212.345 237.976Z" fill="#263238"/>
<path d="M223.129 141.567C223.129 141.567 205.039 181.878 205.039 189.301C205.039 196.724 218.594 248.12 218.594 248.12C218.464 250.166 217.939 260.41 217.939 260.41L293.948 260.676L295.107 244.379L289.176 228.851L295.1 184.951C295.1 184.951 299.088 159.465 299.419 152.336C299.866 143.419 269.574 133.081 270.402 131.847L265.176 124.84L235.223 149.098L229.298 132.04L222.2 138.724L223.129 141.567Z" fill="#FF7800"/>
<path d="M272.906 152.293C264.678 166.17 249.626 191.455 249.626 191.455L222.646 222.138C222.646 222.138 220.882 237.724 224.41 242.505C227.937 247.287 233.991 250.553 233.991 250.553C233.991 250.553 241.11 250.553 250.159 243.008C259.207 235.463 284.165 204.284 284.165 204.284L292.738 193.967C292.738 193.967 302.96 168.927 301.053 156.184C300.333 151.266 298.216 149.227 295.423 146.973C288.39 141.323 277.506 144.532 272.906 152.293Z" fill="#FF7800"/>
<path d="M295.913 185.281C295.876 185.38 295.833 185.476 295.783 185.568C295.69 185.769 295.553 186.035 295.387 186.387C295.027 187.105 294.48 188.146 293.732 189.467C292.241 192.116 289.924 195.856 286.9 200.372C285.381 202.626 283.69 205.074 281.825 207.673C279.961 210.272 277.844 212.95 276.102 216.08C274.36 219.21 272.777 222.627 270.869 226.044C268.909 229.585 266.612 232.929 264.009 236.03C261.405 239.145 258.342 241.846 254.924 244.042C251.721 246.08 248.144 247.462 244.4 248.106C241.011 248.705 237.532 248.558 234.207 247.675C232.702 247.269 231.251 246.684 229.888 245.93C228.618 245.263 227.426 244.459 226.332 243.533C225.328 242.703 224.429 241.756 223.654 240.711C222.956 239.783 222.362 238.782 221.883 237.725C221.143 236.024 220.658 234.225 220.443 232.383C220.319 231.222 220.279 230.054 220.321 228.887C220.321 228.5 220.364 228.169 220.378 227.975C220.371 227.873 220.371 227.769 220.378 227.667C220.386 227.769 220.386 227.873 220.378 227.975C220.378 228.198 220.378 228.5 220.378 228.887C220.365 230.048 220.427 231.209 220.566 232.362C220.807 234.183 221.312 235.961 222.063 237.639C222.547 238.675 223.14 239.657 223.834 240.568C224.605 241.594 225.5 242.522 226.497 243.332C227.581 244.239 228.762 245.026 230.017 245.679C231.362 246.413 232.791 246.984 234.272 247.381C237.563 248.238 241.002 248.37 244.35 247.768C248.043 247.122 251.572 245.751 254.73 243.734C258.117 241.553 261.153 238.874 263.735 235.786C266.323 232.706 268.606 229.383 270.552 225.865C272.46 222.469 274 219.023 275.807 215.907C277.572 212.998 279.494 210.187 281.566 207.486C283.438 204.902 285.165 202.461 286.67 200.221C289.722 195.734 292.069 192.015 293.595 189.395C294.365 188.081 294.934 187.055 295.308 186.351L295.747 185.547C295.792 185.452 295.848 185.363 295.913 185.281Z" fill="#263238"/>
<path d="M221.264 220.768C221.264 220.818 220.882 221.055 220.385 221.608C219.724 222.307 219.317 223.208 219.228 224.165C219.139 225.123 219.374 226.083 219.896 226.891C220.277 227.523 220.616 227.832 220.616 227.875C220.616 227.918 220.162 227.674 219.687 227.042C219.066 226.205 218.777 225.168 218.874 224.131C218.971 223.095 219.447 222.13 220.213 221.421C220.491 221.105 220.857 220.878 221.264 220.768Z" fill="#263238"/>
<path d="M226.254 228.908C226.399 228.927 226.541 228.961 226.679 229.008L227.183 229.145L227.902 229.274C229.398 229.471 230.918 229.328 232.351 228.858C234.483 228.146 236.443 227.002 238.11 225.498C240.091 223.602 241.886 221.522 243.473 219.288C245.085 217.035 246.941 214.967 249.009 213.121C249.988 212.303 250.945 211.577 251.744 210.795C252.505 210.099 253.117 209.256 253.544 208.318C253.83 207.633 253.942 206.888 253.87 206.149C253.799 205.41 253.545 204.7 253.133 204.082C252.786 203.657 252.338 203.324 251.83 203.113C251.973 203.14 252.113 203.181 252.248 203.235C252.636 203.409 252.978 203.669 253.248 203.996C253.705 204.628 253.994 205.365 254.089 206.138C254.185 206.911 254.084 207.695 253.796 208.419C253.367 209.398 252.745 210.282 251.967 211.017C251.154 211.822 250.189 212.568 249.232 213.387C247.198 215.23 245.369 217.285 243.775 219.518C242.17 221.771 240.347 223.863 238.333 225.763C236.631 227.276 234.63 228.416 232.459 229.109C230.986 229.569 229.424 229.675 227.902 229.418L227.183 229.252C226.981 229.195 226.815 229.123 226.686 229.08C226.535 229.04 226.39 228.982 226.254 228.908Z" fill="#263238"/>
<path d="M276.569 148.029C276.478 148.18 276.377 148.323 276.267 148.46C276.029 148.762 275.727 149.178 275.346 149.659C274.525 150.678 273.395 152.2 272.013 154.096C268.49 159.075 265.285 164.271 262.417 169.653C259.019 175.942 256.212 181.778 254.059 185.942C252.994 188.031 252.116 189.711 251.475 190.86L250.777 192.174C250.698 192.331 250.604 192.48 250.496 192.619C250.55 192.452 250.62 192.291 250.705 192.138L251.382 190.781L253.851 185.82C255.938 181.62 258.717 175.769 262.115 169.466C264.986 164.067 268.233 158.876 271.833 153.931C273.272 152.057 274.402 150.549 275.259 149.558L276.238 148.403C276.335 148.266 276.446 148.141 276.569 148.029Z" fill="#263238"/>
<g opacity="0.3">
<path d="M220.4 227.667C223.906 229.562 227.764 229.361 231.68 228.6C235.634 227.812 239.194 225.687 241.758 222.584C241.166 226.04 239.542 229.237 237.101 231.759C234.61 234.193 230.996 235.6 227.57 234.975C224.143 234.351 220.673 231.134 220.371 227.667" fill="black"/>
</g>
<g opacity="0.3">
<path d="M253.586 206.948C255.812 210.369 256.588 214.53 255.746 218.521C258.719 213.983 259.417 208.24 258.625 202.877C257.834 197.515 255.638 192.453 253.205 187.607C253.205 187.607 250.527 192.13 250.498 192.633C250.369 195.246 251.333 200.156 251.837 202.719C252.509 203.363 253.011 204.163 253.296 205.048C253.581 205.933 253.641 206.874 253.471 207.788" fill="black"/>
</g>
<g opacity="0.3">
<path d="M232.293 246.448C239.448 252.012 250.066 252.27 257.891 247.704C265.428 243.304 270.071 235.378 274.376 227.804C281.049 216.073 289.183 201.564 293.949 188.943C293.949 188.943 280.595 207.114 276.571 214.946C273.889 220.241 270.844 225.345 267.458 230.223C263.627 235.72 258.447 240.145 252.413 243.077C246.379 246.009 239.693 247.35 232.991 246.972" fill="black"/>
</g>
<path d="M217.938 260.375C217.927 260.302 217.927 260.226 217.938 260.153C217.938 259.98 217.938 259.765 217.938 259.499C217.938 258.889 217.989 258.064 218.032 257.008C218.133 254.855 218.269 251.768 218.442 248.085V248.171C217.154 243.863 215.642 238.637 214.073 232.994C211.999 225.514 210.25 218.708 209.07 213.761C208.486 211.292 208.026 209.282 207.738 207.889C207.601 207.221 207.493 206.683 207.414 206.288C207.371 206.101 207.34 205.911 207.32 205.721C207.393 205.897 207.449 206.08 207.486 206.266L207.882 207.86C208.235 209.296 208.724 211.263 209.322 213.697C210.567 218.629 212.359 225.42 214.432 232.894C215.995 238.536 217.485 243.763 218.752 248.077V248.128C218.528 251.811 218.341 254.876 218.205 257.059C218.133 258.1 218.075 258.932 218.032 259.543C218.032 259.801 217.989 260.016 217.974 260.189C217.97 260.252 217.958 260.315 217.938 260.375Z" fill="#263238"/>
<path d="M293.969 146.558C293.969 146.615 293.192 146.342 291.947 146.034C290.322 145.625 288.66 145.385 286.987 145.316C285.313 145.27 283.638 145.4 281.991 145.703C280.724 145.94 279.954 146.156 279.939 146.098C280.099 145.996 280.274 145.918 280.458 145.868C280.942 145.702 281.435 145.561 281.933 145.445C283.584 145.061 285.278 144.892 286.972 144.942C288.68 144.993 290.373 145.264 292.011 145.746C292.502 145.889 292.983 146.061 293.451 146.263C293.811 146.443 293.969 146.529 293.969 146.558Z" fill="#263238"/>
<path d="M269.904 133.305C269.852 133.435 269.787 133.56 269.71 133.678L269.098 134.705C268.558 135.595 267.759 136.858 266.744 138.431C264.707 141.539 261.792 145.782 258.344 150.29C255.572 153.93 252.887 157.197 250.692 159.753L250.533 159.932L250.44 159.717C249.389 157.434 248.525 155.538 247.898 154.167C247.618 153.535 247.395 153.019 247.215 152.624C247.126 152.447 247.056 152.262 247.006 152.071C247.121 152.233 247.22 152.406 247.301 152.588C247.495 152.975 247.74 153.478 248.057 154.095C248.712 155.452 249.619 157.326 250.706 159.595L250.461 159.559C252.621 156.974 255.277 153.701 258.048 150.068C261.489 145.559 264.426 141.352 266.521 138.28L268.976 134.626L269.645 133.635C269.717 133.514 269.804 133.403 269.904 133.305Z" fill="#263238"/>
<path d="M287.405 249.082C287.297 249.082 287.628 245.342 288.125 240.754C288.622 236.167 289.133 232.462 289.234 232.477C289.334 232.491 289.003 236.21 288.514 240.797C288.024 245.385 287.492 249.089 287.405 249.082Z" fill="#263238"/>
<path d="M235.301 248.098C235.71 250.166 235.996 252.256 236.157 254.358C236.449 256.445 236.61 258.547 236.64 260.654C236.235 258.585 235.949 256.495 235.783 254.394C235.5 252.306 235.339 250.204 235.301 248.098Z" fill="#263238"/>
<path d="M273.75 166.105C273.715 165.963 273.646 165.83 273.55 165.72C273.453 165.609 273.331 165.523 273.195 165.469C273.058 165.415 272.91 165.394 272.764 165.409C272.617 165.423 272.477 165.472 272.353 165.552L272.303 165.595C272.19 165.696 272.105 165.824 272.057 165.967C272.009 166.11 271.999 166.263 272.028 166.411C272.057 166.559 272.124 166.697 272.223 166.811C272.322 166.925 272.449 167.012 272.591 167.062C272.734 167.113 272.887 167.125 273.036 167.099C273.185 167.072 273.324 167.007 273.44 166.911C273.557 166.814 273.646 166.689 273.699 166.548C273.752 166.407 273.767 166.254 273.743 166.105H273.75Z" fill="white"/>
<path d="M266.241 147.857C266.206 147.715 266.137 147.582 266.041 147.472C265.944 147.361 265.822 147.275 265.686 147.221C265.549 147.167 265.401 147.146 265.255 147.161C265.108 147.175 264.968 147.224 264.844 147.304L264.801 147.347C264.688 147.448 264.603 147.576 264.555 147.719C264.507 147.862 264.497 148.015 264.526 148.163C264.555 148.311 264.622 148.449 264.721 148.563C264.82 148.677 264.947 148.764 265.089 148.814C265.232 148.865 265.385 148.877 265.534 148.851C265.683 148.824 265.822 148.759 265.939 148.663C266.055 148.566 266.144 148.441 266.197 148.3C266.25 148.159 266.265 148.006 266.241 147.857Z" fill="white"/>
<path d="M249.013 162.552C248.978 162.41 248.91 162.278 248.813 162.167C248.716 162.056 248.595 161.97 248.458 161.916C248.321 161.862 248.174 161.842 248.027 161.856C247.881 161.871 247.74 161.92 247.617 162H247.573C247.461 162.1 247.376 162.227 247.327 162.37C247.279 162.513 247.268 162.665 247.297 162.813C247.326 162.961 247.392 163.099 247.491 163.214C247.589 163.328 247.715 163.415 247.857 163.466C247.999 163.517 248.152 163.53 248.301 163.505C248.45 163.479 248.589 163.415 248.706 163.319C248.823 163.223 248.912 163.099 248.966 162.958C249.02 162.818 249.036 162.665 249.013 162.516V162.552Z" fill="white"/>
<path d="M230.391 155.172C230.357 155.029 230.289 154.897 230.194 154.787C230.098 154.676 229.977 154.59 229.84 154.536C229.704 154.481 229.557 154.461 229.411 154.475C229.265 154.49 229.125 154.539 229.002 154.619L228.951 154.662C228.838 154.763 228.754 154.891 228.706 155.033C228.657 155.176 228.647 155.329 228.676 155.478C228.706 155.626 228.773 155.763 228.872 155.878C228.97 155.992 229.097 156.078 229.24 156.129C229.382 156.179 229.536 156.192 229.684 156.165C229.833 156.139 229.973 156.074 230.089 155.978C230.205 155.881 230.294 155.756 230.347 155.615C230.4 155.473 230.415 155.321 230.391 155.172Z" fill="white"/>
<path d="M227.102 147.9C227.067 147.757 226.998 147.625 226.902 147.515C226.805 147.404 226.683 147.318 226.547 147.264C226.41 147.21 226.262 147.189 226.116 147.204C225.969 147.218 225.829 147.267 225.705 147.347L225.655 147.39C225.539 147.491 225.451 147.619 225.401 147.764C225.35 147.909 225.338 148.064 225.367 148.215C225.395 148.365 225.463 148.506 225.563 148.622C225.663 148.738 225.791 148.827 225.936 148.878C226.081 148.929 226.236 148.942 226.388 148.914C226.539 148.887 226.68 148.82 226.797 148.721C226.914 148.622 227.004 148.494 227.056 148.35C227.108 148.206 227.121 148.051 227.095 147.9H227.102Z" fill="white"/>
<path d="M228.536 139.5C228.501 139.357 228.432 139.225 228.336 139.114C228.239 139.004 228.118 138.918 227.981 138.864C227.844 138.81 227.696 138.789 227.55 138.803C227.404 138.818 227.263 138.867 227.139 138.947L227.089 138.983C226.976 139.083 226.891 139.21 226.843 139.353C226.794 139.496 226.784 139.649 226.813 139.796C226.841 139.944 226.908 140.082 227.006 140.197C227.104 140.311 227.231 140.398 227.373 140.449C227.515 140.5 227.668 140.513 227.817 140.488C227.966 140.462 228.105 140.398 228.222 140.302C228.338 140.207 228.428 140.082 228.482 139.941C228.536 139.801 228.552 139.648 228.529 139.5H228.536Z" fill="white"/>
<path d="M218.22 151.058C218.185 150.916 218.116 150.784 218.019 150.673C217.923 150.562 217.801 150.476 217.664 150.422C217.528 150.368 217.38 150.347 217.234 150.362C217.087 150.376 216.946 150.426 216.823 150.505L216.773 150.541C216.66 150.641 216.575 150.769 216.527 150.912C216.478 151.054 216.468 151.207 216.496 151.355C216.525 151.503 216.592 151.641 216.69 151.755C216.788 151.87 216.914 151.957 217.056 152.008C217.199 152.059 217.352 152.072 217.5 152.046C217.649 152.021 217.789 151.957 217.905 151.861C218.022 151.765 218.111 151.641 218.165 151.5C218.219 151.359 218.235 151.207 218.212 151.058H218.22Z" fill="white"/>
<path d="M242.141 154.389C242.107 154.246 242.039 154.114 241.944 154.003C241.848 153.893 241.727 153.807 241.59 153.752C241.454 153.698 241.307 153.677 241.161 153.692C241.015 153.707 240.875 153.756 240.752 153.836L240.701 153.879C240.588 153.979 240.504 154.107 240.456 154.25C240.407 154.393 240.397 154.546 240.426 154.694C240.456 154.842 240.523 154.98 240.622 155.094C240.72 155.209 240.847 155.295 240.99 155.346C241.132 155.396 241.286 155.409 241.434 155.382C241.583 155.356 241.723 155.291 241.839 155.194C241.955 155.098 242.044 154.973 242.097 154.831C242.15 154.69 242.165 154.538 242.141 154.389Z" fill="white"/>
<path d="M221.884 169.373C221.849 169.23 221.78 169.098 221.684 168.987C221.587 168.877 221.465 168.791 221.328 168.737C221.192 168.683 221.044 168.662 220.898 168.676C220.751 168.691 220.611 168.74 220.487 168.82H220.437C220.324 168.92 220.239 169.048 220.191 169.19C220.142 169.333 220.132 169.486 220.16 169.634C220.189 169.781 220.256 169.919 220.354 170.034C220.452 170.148 220.578 170.235 220.721 170.286C220.863 170.337 221.016 170.351 221.164 170.325C221.313 170.299 221.453 170.235 221.569 170.139C221.686 170.044 221.776 169.919 221.829 169.779C221.883 169.638 221.899 169.486 221.876 169.337L221.884 169.373Z" fill="white"/>
<path d="M203.369 212.461C203.334 212.318 203.265 212.186 203.169 212.075C203.072 211.965 202.95 211.879 202.813 211.825C202.677 211.77 202.529 211.75 202.383 211.764C202.236 211.779 202.096 211.828 201.972 211.908L201.929 211.944C201.816 212.044 201.731 212.171 201.683 212.314C201.634 212.457 201.624 212.61 201.653 212.757C201.681 212.905 201.748 213.043 201.846 213.158C201.944 213.272 202.071 213.359 202.213 213.41C202.355 213.461 202.508 213.474 202.657 213.449C202.805 213.423 202.945 213.359 203.062 213.263C203.178 213.168 203.268 213.043 203.322 212.902C203.375 212.762 203.392 212.609 203.369 212.461Z" fill="white"/>
<path d="M209.976 187.607C209.941 187.465 209.873 187.332 209.776 187.222C209.68 187.111 209.558 187.025 209.421 186.971C209.285 186.917 209.137 186.896 208.99 186.911C208.844 186.925 208.703 186.974 208.58 187.054L208.529 187.097C208.417 187.198 208.332 187.326 208.284 187.469C208.235 187.612 208.225 187.765 208.255 187.913C208.284 188.061 208.351 188.199 208.45 188.313C208.548 188.427 208.675 188.514 208.818 188.564C208.96 188.615 209.114 188.627 209.263 188.601C209.411 188.574 209.551 188.509 209.667 188.413C209.783 188.316 209.872 188.191 209.925 188.05C209.978 187.909 209.993 187.756 209.969 187.607H209.976Z" fill="white"/>
<path d="M258.696 143.972C258.661 143.83 258.593 143.698 258.496 143.587C258.399 143.476 258.278 143.39 258.141 143.336C258.004 143.282 257.857 143.261 257.71 143.276C257.564 143.29 257.423 143.34 257.3 143.419L257.249 143.455C257.136 143.555 257.052 143.683 257.003 143.826C256.955 143.968 256.944 144.121 256.973 144.269C257.001 144.417 257.068 144.555 257.166 144.669C257.265 144.784 257.391 144.871 257.533 144.922C257.675 144.973 257.828 144.986 257.977 144.96C258.126 144.935 258.265 144.871 258.382 144.775C258.498 144.679 258.588 144.555 258.642 144.414C258.696 144.273 258.712 144.121 258.689 143.972H258.696Z" fill="white"/>
<path d="M281.905 193.451C281.87 193.308 281.801 193.176 281.704 193.066C281.608 192.955 281.486 192.869 281.349 192.815C281.213 192.761 281.065 192.74 280.919 192.754C280.772 192.769 280.631 192.818 280.508 192.898L280.458 192.941C280.342 193.041 280.254 193.17 280.203 193.315C280.153 193.46 280.141 193.615 280.169 193.765C280.198 193.916 280.265 194.056 280.365 194.173C280.465 194.289 280.594 194.377 280.739 194.429C280.883 194.48 281.039 194.492 281.19 194.465C281.341 194.437 281.483 194.371 281.6 194.272C281.717 194.173 281.806 194.045 281.858 193.901C281.911 193.757 281.924 193.602 281.897 193.451H281.905Z" fill="white"/>
<path d="M290.955 150.871C290.921 150.729 290.853 150.597 290.757 150.486C290.661 150.375 290.54 150.289 290.404 150.235C290.268 150.181 290.12 150.16 289.974 150.174C289.828 150.189 289.688 150.238 289.565 150.318L289.515 150.354C289.402 150.454 289.317 150.582 289.269 150.725C289.22 150.867 289.21 151.02 289.238 151.168C289.267 151.316 289.334 151.454 289.432 151.568C289.53 151.683 289.657 151.77 289.799 151.821C289.941 151.872 290.094 151.885 290.243 151.859C290.391 151.833 290.531 151.77 290.647 151.674C290.764 151.578 290.854 151.454 290.907 151.313C290.961 151.172 290.978 151.02 290.955 150.871Z" fill="white"/>
<path d="M287.405 178.755C287.37 178.613 287.301 178.481 287.204 178.37C287.108 178.26 286.986 178.174 286.849 178.12C286.713 178.065 286.565 178.045 286.419 178.059C286.272 178.074 286.131 178.123 286.008 178.203L285.958 178.246C285.842 178.346 285.754 178.475 285.703 178.62C285.653 178.764 285.641 178.92 285.669 179.07C285.698 179.221 285.765 179.361 285.865 179.477C285.965 179.594 286.094 179.682 286.239 179.733C286.383 179.785 286.539 179.797 286.69 179.769C286.841 179.742 286.983 179.675 287.1 179.576C287.217 179.478 287.306 179.35 287.358 179.206C287.411 179.062 287.424 178.906 287.397 178.755H287.405Z" fill="white"/>
<path d="M267.097 198.892C267.063 198.75 266.994 198.618 266.897 198.507C266.801 198.396 266.679 198.31 266.542 198.256C266.406 198.202 266.258 198.181 266.112 198.196C265.965 198.21 265.824 198.26 265.701 198.339L265.651 198.382C265.538 198.483 265.453 198.611 265.405 198.754C265.357 198.897 265.347 199.05 265.376 199.198C265.405 199.346 265.472 199.484 265.571 199.598C265.67 199.712 265.796 199.799 265.939 199.849C266.082 199.9 266.235 199.912 266.384 199.886C266.533 199.859 266.672 199.795 266.788 199.698C266.904 199.601 266.993 199.476 267.046 199.335C267.099 199.194 267.114 199.041 267.09 198.892H267.097Z" fill="white"/>
<path d="M267.953 182.123C267.918 181.98 267.85 181.848 267.753 181.737C267.657 181.627 267.535 181.541 267.398 181.487C267.262 181.433 267.114 181.412 266.967 181.426C266.821 181.441 266.68 181.49 266.557 181.57L266.506 181.613C266.39 181.713 266.303 181.842 266.252 181.987C266.202 182.131 266.19 182.287 266.218 182.437C266.247 182.588 266.314 182.728 266.414 182.845C266.514 182.961 266.643 183.049 266.788 183.1C266.932 183.152 267.088 183.164 267.239 183.137C267.39 183.109 267.531 183.043 267.649 182.944C267.766 182.845 267.855 182.717 267.907 182.573C267.96 182.429 267.973 182.274 267.946 182.123H267.953Z" fill="white"/>
<path d="M280.2 151.016C280.166 150.873 280.098 150.741 280.002 150.63C279.906 150.52 279.785 150.434 279.649 150.379C279.513 150.325 279.365 150.304 279.219 150.319C279.073 150.333 278.933 150.383 278.81 150.463L278.76 150.506C278.647 150.606 278.562 150.734 278.514 150.877C278.466 151.02 278.456 151.173 278.485 151.321C278.514 151.469 278.581 151.607 278.68 151.721C278.779 151.836 278.906 151.922 279.048 151.973C279.191 152.023 279.344 152.036 279.493 152.009C279.642 151.983 279.781 151.918 279.897 151.821C280.014 151.725 280.103 151.6 280.156 151.458C280.209 151.317 280.224 151.165 280.2 151.016Z" fill="white"/>
<path d="M263.736 134.775C263.702 134.633 263.634 134.501 263.538 134.39C263.442 134.279 263.321 134.193 263.185 134.139C263.049 134.085 262.902 134.064 262.756 134.079C262.61 134.093 262.469 134.143 262.346 134.223L262.296 134.258C262.183 134.359 262.098 134.486 262.05 134.629C262.002 134.772 261.991 134.924 262.02 135.072C262.048 135.22 262.115 135.358 262.213 135.472C262.311 135.587 262.438 135.674 262.58 135.725C262.722 135.776 262.875 135.789 263.024 135.763C263.173 135.738 263.312 135.674 263.429 135.578C263.545 135.482 263.635 135.358 263.689 135.217C263.743 135.076 263.759 134.924 263.736 134.775Z" fill="white"/>
<path d="M263.109 160.959C263.075 160.816 263.008 160.682 262.911 160.571C262.815 160.459 262.693 160.373 262.556 160.318C262.418 160.264 262.27 160.244 262.123 160.259C261.976 160.274 261.835 160.325 261.712 160.406L261.669 160.442C261.556 160.542 261.471 160.67 261.423 160.813C261.375 160.955 261.364 161.108 261.393 161.256C261.421 161.404 261.488 161.542 261.586 161.656C261.684 161.771 261.811 161.858 261.953 161.909C262.095 161.96 262.248 161.973 262.397 161.947C262.546 161.921 262.685 161.858 262.802 161.762C262.918 161.666 263.008 161.542 263.062 161.401C263.116 161.26 263.132 161.108 263.109 160.959Z" fill="white"/>
<path d="M242.061 240.826C242.025 240.688 241.958 240.56 241.864 240.453C241.77 240.346 241.652 240.262 241.52 240.208C241.388 240.154 241.245 240.132 241.102 240.144C240.96 240.155 240.822 240.199 240.7 240.273L240.65 240.309C240.537 240.409 240.452 240.537 240.403 240.68C240.355 240.822 240.345 240.975 240.373 241.123C240.402 241.271 240.469 241.409 240.567 241.523C240.665 241.638 240.791 241.725 240.933 241.776C241.076 241.827 241.228 241.84 241.377 241.814C241.526 241.788 241.666 241.725 241.782 241.629C241.899 241.533 241.988 241.409 242.042 241.268C242.096 241.127 242.112 240.975 242.089 240.826H242.061Z" fill="white"/>
<path d="M217.91 227.689C217.875 227.547 217.806 227.414 217.71 227.304C217.613 227.193 217.492 227.107 217.355 227.053C217.218 226.999 217.07 226.978 216.924 226.993C216.778 227.007 216.637 227.056 216.513 227.136L216.463 227.179C216.35 227.28 216.266 227.408 216.217 227.551C216.169 227.694 216.159 227.847 216.188 227.995C216.217 228.143 216.285 228.281 216.383 228.395C216.482 228.509 216.609 228.596 216.752 228.646C216.894 228.697 217.047 228.709 217.196 228.683C217.345 228.656 217.484 228.591 217.601 228.495C217.717 228.398 217.806 228.273 217.859 228.132C217.912 227.991 217.927 227.838 217.903 227.689H217.91Z" fill="white"/>
<path d="M198.38 234.129C198.345 233.986 198.277 233.854 198.18 233.743C198.084 233.633 197.962 233.547 197.825 233.493C197.688 233.438 197.541 233.418 197.394 233.432C197.248 233.447 197.107 233.496 196.984 233.576L196.941 233.612C196.828 233.712 196.743 233.839 196.694 233.982C196.646 234.125 196.636 234.277 196.664 234.425C196.693 234.573 196.76 234.711 196.858 234.826C196.956 234.94 197.082 235.027 197.224 235.078C197.367 235.129 197.52 235.142 197.668 235.117C197.817 235.091 197.957 235.027 198.073 234.931C198.19 234.835 198.279 234.711 198.333 234.57C198.387 234.43 198.403 234.277 198.38 234.129Z" fill="white"/>
<path d="M196.292 245.22C196.257 245.078 196.188 244.946 196.092 244.835C195.995 244.724 195.873 244.638 195.737 244.584C195.6 244.53 195.452 244.51 195.306 244.524C195.16 244.538 195.019 244.588 194.895 244.668L194.845 244.703C194.732 244.804 194.647 244.931 194.599 245.074C194.55 245.216 194.54 245.369 194.569 245.517C194.597 245.665 194.664 245.803 194.762 245.917C194.86 246.032 194.987 246.119 195.129 246.17C195.271 246.221 195.424 246.234 195.573 246.208C195.721 246.183 195.861 246.119 195.978 246.023C196.094 245.927 196.184 245.803 196.238 245.662C196.291 245.521 196.308 245.369 196.285 245.22H196.292Z" fill="white"/>
<path d="M214.598 248.931C214.563 248.789 214.495 248.657 214.398 248.546C214.301 248.435 214.18 248.349 214.043 248.295C213.906 248.241 213.759 248.22 213.612 248.235C213.466 248.249 213.325 248.299 213.202 248.378L213.158 248.422C213.046 248.522 212.961 248.65 212.913 248.793C212.864 248.936 212.854 249.089 212.883 249.237C212.913 249.385 212.98 249.523 213.079 249.637C213.177 249.751 213.304 249.838 213.447 249.888C213.589 249.939 213.743 249.951 213.891 249.925C214.04 249.898 214.18 249.834 214.296 249.737C214.412 249.64 214.501 249.515 214.554 249.374C214.607 249.233 214.622 249.08 214.598 248.931Z" fill="white"/>
<path d="M208.481 224.091C208.446 223.949 208.377 223.817 208.281 223.706C208.184 223.596 208.062 223.51 207.926 223.455C207.789 223.401 207.641 223.381 207.495 223.395C207.348 223.41 207.208 223.459 207.084 223.539L207.034 223.582C206.918 223.682 206.83 223.811 206.779 223.955C206.729 224.1 206.717 224.255 206.746 224.406C206.774 224.557 206.842 224.697 206.942 224.813C207.041 224.93 207.17 225.018 207.315 225.069C207.46 225.12 207.615 225.133 207.766 225.105C207.918 225.078 208.059 225.011 208.176 224.912C208.293 224.813 208.382 224.686 208.435 224.542C208.487 224.397 208.5 224.242 208.474 224.091H208.481Z" fill="white"/>
<path d="M230.939 230.408C230.905 230.265 230.838 230.132 230.741 230.02C230.645 229.908 230.523 229.822 230.386 229.767C230.248 229.713 230.1 229.693 229.953 229.708C229.806 229.723 229.665 229.774 229.542 229.856L229.499 229.891C229.386 229.992 229.302 230.119 229.253 230.262C229.205 230.405 229.194 230.557 229.223 230.705C229.251 230.853 229.318 230.991 229.416 231.105C229.515 231.22 229.641 231.307 229.783 231.358C229.925 231.409 230.078 231.422 230.227 231.396C230.376 231.371 230.515 231.307 230.632 231.211C230.748 231.115 230.838 230.991 230.892 230.85C230.946 230.709 230.962 230.557 230.939 230.408Z" fill="white"/>
<path d="M284.33 224.055C284.297 223.912 284.23 223.779 284.135 223.667C284.039 223.555 283.918 223.468 283.781 223.414C283.644 223.36 283.496 223.339 283.35 223.355C283.203 223.37 283.063 223.421 282.94 223.502L282.89 223.538C282.777 223.638 282.692 223.766 282.644 223.909C282.595 224.051 282.585 224.204 282.613 224.352C282.642 224.5 282.709 224.638 282.807 224.752C282.905 224.867 283.032 224.954 283.174 225.005C283.316 225.056 283.469 225.069 283.618 225.043C283.766 225.018 283.906 224.954 284.022 224.858C284.139 224.762 284.229 224.638 284.282 224.497C284.336 224.356 284.353 224.204 284.33 224.055Z" fill="white"/>
<path d="M251.297 255.623C251.262 255.48 251.193 255.348 251.097 255.237C251 255.127 250.878 255.041 250.742 254.987C250.605 254.933 250.457 254.912 250.311 254.926C250.164 254.941 250.024 254.99 249.9 255.07L249.85 255.113C249.737 255.213 249.652 255.341 249.604 255.484C249.556 255.627 249.546 255.78 249.575 255.928C249.604 256.076 249.671 256.214 249.77 256.329C249.869 256.443 249.996 256.529 250.138 256.58C250.281 256.63 250.434 256.643 250.583 256.616C250.732 256.59 250.871 256.525 250.987 256.428C251.104 256.332 251.192 256.207 251.245 256.065C251.298 255.924 251.314 255.772 251.289 255.623H251.297Z" fill="white"/>
<path d="M265.383 238.047C265.349 237.904 265.282 237.772 265.186 237.662C265.09 237.551 264.969 237.465 264.833 237.411C264.696 237.356 264.549 237.336 264.403 237.35C264.257 237.365 264.117 237.414 263.994 237.494L263.944 237.537C263.831 237.638 263.746 237.766 263.698 237.908C263.65 238.051 263.64 238.204 263.669 238.352C263.698 238.501 263.765 238.638 263.864 238.753C263.963 238.867 264.089 238.953 264.232 239.004C264.374 239.054 264.528 239.067 264.677 239.04C264.826 239.014 264.965 238.949 265.081 238.853C265.197 238.756 265.286 238.631 265.339 238.49C265.392 238.348 265.407 238.196 265.383 238.047Z" fill="white"/>
<path d="M273.756 252.341C273.723 252.198 273.658 252.065 273.564 251.953C273.469 251.84 273.35 251.752 273.215 251.695C273.079 251.638 272.933 251.615 272.786 251.626C272.64 251.637 272.498 251.683 272.373 251.759L272.33 251.803C272.217 251.903 272.133 252.031 272.084 252.174C272.036 252.317 272.026 252.47 272.055 252.618C272.084 252.766 272.152 252.904 272.25 253.018C272.349 253.132 272.476 253.219 272.619 253.269C272.761 253.32 272.914 253.332 273.063 253.306C273.212 253.279 273.352 253.215 273.468 253.118C273.584 253.021 273.673 252.896 273.726 252.755C273.779 252.614 273.794 252.461 273.77 252.312L273.756 252.341Z" fill="white"/>
<path d="M250.469 177.492C250.434 177.349 250.365 177.217 250.268 177.107C250.172 176.996 250.05 176.91 249.913 176.856C249.777 176.802 249.629 176.781 249.483 176.795C249.336 176.81 249.195 176.859 249.072 176.939L249.022 176.982C248.909 177.082 248.824 177.21 248.776 177.353C248.728 177.496 248.718 177.649 248.747 177.797C248.776 177.945 248.843 178.083 248.942 178.198C249.041 178.312 249.168 178.398 249.31 178.449C249.453 178.499 249.606 178.512 249.755 178.485C249.904 178.459 250.043 178.394 250.159 178.298C250.275 178.201 250.364 178.076 250.417 177.935C250.47 177.793 250.485 177.641 250.461 177.492H250.469Z" fill="white"/>
<path d="M269.423 213.984C269.388 213.841 269.319 213.709 269.223 213.599C269.126 213.488 269.004 213.402 268.868 213.348C268.731 213.294 268.583 213.273 268.437 213.288C268.29 213.302 268.15 213.351 268.026 213.431L267.976 213.467C267.863 213.567 267.778 213.695 267.73 213.837C267.681 213.98 267.671 214.133 267.699 214.281C267.728 214.429 267.795 214.567 267.893 214.681C267.991 214.796 268.117 214.883 268.26 214.934C268.402 214.985 268.555 214.998 268.703 214.972C268.852 214.946 268.992 214.882 269.108 214.787C269.225 214.691 269.315 214.567 269.368 214.426C269.422 214.285 269.439 214.133 269.416 213.984H269.423Z" fill="white"/>
<path d="M263.274 227.802C263.239 227.66 263.171 227.528 263.074 227.417C262.978 227.306 262.856 227.22 262.719 227.166C262.582 227.112 262.435 227.092 262.288 227.106C262.142 227.121 262.001 227.17 261.878 227.25L261.827 227.285C261.714 227.386 261.63 227.513 261.581 227.656C261.533 227.799 261.522 227.951 261.551 228.099C261.58 228.247 261.646 228.385 261.744 228.499C261.843 228.614 261.969 228.701 262.111 228.752C262.253 228.803 262.406 228.816 262.555 228.79C262.704 228.765 262.843 228.701 262.96 228.605C263.077 228.509 263.166 228.385 263.22 228.244C263.274 228.104 263.29 227.951 263.267 227.802H263.274Z" fill="white"/>
<path d="M283.48 238.902C283.445 238.759 283.377 238.627 283.28 238.517C283.184 238.406 283.062 238.32 282.925 238.266C282.788 238.212 282.641 238.191 282.494 238.206C282.348 238.22 282.207 238.269 282.084 238.349L282.033 238.392C281.921 238.493 281.836 238.621 281.788 238.764C281.739 238.907 281.729 239.06 281.758 239.208C281.788 239.356 281.855 239.494 281.954 239.608C282.052 239.722 282.179 239.809 282.322 239.859C282.464 239.91 282.618 239.922 282.766 239.896C282.915 239.869 283.055 239.804 283.171 239.708C283.287 239.611 283.376 239.486 283.429 239.345C283.482 239.203 283.497 239.051 283.473 238.902H283.48Z" fill="white"/>
<path d="M228.188 254.934C228.155 254.79 228.087 254.657 227.991 254.545C227.894 254.434 227.772 254.347 227.635 254.293C227.498 254.238 227.349 254.218 227.203 254.233C227.056 254.249 226.915 254.299 226.792 254.381L226.741 254.417C226.629 254.517 226.544 254.645 226.495 254.787C226.447 254.93 226.436 255.083 226.465 255.231C226.494 255.378 226.56 255.516 226.659 255.631C226.757 255.745 226.883 255.832 227.025 255.883C227.167 255.934 227.32 255.948 227.469 255.922C227.618 255.896 227.757 255.832 227.874 255.736C227.991 255.641 228.08 255.516 228.134 255.376C228.188 255.235 228.204 255.083 228.181 254.934H228.188Z" fill="white"/>
<path d="M182.117 250.734C182.083 250.591 182.014 250.459 181.917 250.349C181.821 250.238 181.699 250.152 181.562 250.098C181.426 250.044 181.278 250.023 181.131 250.038C180.985 250.052 180.844 250.101 180.721 250.181L180.671 250.224C180.554 250.325 180.467 250.453 180.416 250.598C180.366 250.743 180.354 250.898 180.382 251.049C180.411 251.199 180.478 251.34 180.578 251.456C180.678 251.572 180.807 251.661 180.952 251.712C181.096 251.763 181.252 251.776 181.403 251.748C181.554 251.72 181.695 251.654 181.813 251.555C181.93 251.456 182.019 251.328 182.071 251.184C182.124 251.04 182.137 250.885 182.11 250.734H182.117Z" fill="white"/>
<path d="M222.703 243.187C222.668 243.045 222.6 242.913 222.503 242.802C222.407 242.691 222.285 242.605 222.148 242.551C222.011 242.497 221.864 242.476 221.717 242.491C221.571 242.505 221.43 242.555 221.307 242.634L221.256 242.677C221.14 242.778 221.053 242.907 221.002 243.051C220.952 243.196 220.94 243.351 220.968 243.502C220.997 243.652 221.064 243.793 221.164 243.909C221.264 244.025 221.393 244.114 221.538 244.165C221.682 244.216 221.838 244.229 221.989 244.201C222.14 244.174 222.281 244.107 222.399 244.008C222.516 243.909 222.605 243.781 222.657 243.637C222.709 243.493 222.723 243.338 222.696 243.187H222.703Z" fill="white"/>
<path d="M183.832 234.983C183.798 234.839 183.73 234.706 183.634 234.594C183.538 234.483 183.416 234.396 183.278 234.342C183.141 234.287 182.993 234.267 182.846 234.282C182.699 234.298 182.558 234.348 182.435 234.43L182.392 234.466C182.279 234.566 182.194 234.693 182.146 234.836C182.097 234.979 182.087 235.132 182.115 235.279C182.144 235.427 182.211 235.565 182.309 235.68C182.407 235.794 182.533 235.881 182.676 235.932C182.818 235.983 182.971 235.996 183.119 235.971C183.268 235.945 183.408 235.881 183.524 235.785C183.641 235.69 183.731 235.565 183.784 235.424C183.838 235.284 183.854 235.131 183.832 234.983Z" fill="white"/>
<path d="M248.763 208.921C248.728 208.779 248.659 208.647 248.562 208.536C248.466 208.426 248.344 208.34 248.207 208.286C248.071 208.231 247.923 208.211 247.777 208.225C247.63 208.24 247.489 208.289 247.366 208.369L247.316 208.405C247.203 208.505 247.118 208.632 247.069 208.775C247.021 208.918 247.011 209.07 247.039 209.218C247.068 209.366 247.135 209.504 247.233 209.619C247.331 209.733 247.457 209.82 247.599 209.871C247.742 209.922 247.894 209.935 248.043 209.91C248.192 209.884 248.332 209.82 248.448 209.724C248.565 209.628 248.654 209.504 248.708 209.363C248.762 209.223 248.778 209.07 248.755 208.921H248.763Z" fill="white"/>
<path d="M235.173 169.373C235.138 169.23 235.069 169.098 234.973 168.987C234.876 168.877 234.754 168.791 234.618 168.737C234.481 168.683 234.333 168.662 234.187 168.676C234.04 168.691 233.9 168.74 233.776 168.82H233.726C233.613 168.92 233.528 169.048 233.48 169.19C233.431 169.333 233.421 169.486 233.449 169.634C233.478 169.781 233.545 169.919 233.643 170.034C233.741 170.148 233.867 170.235 234.01 170.286C234.152 170.337 234.305 170.351 234.453 170.325C234.602 170.299 234.742 170.235 234.858 170.139C234.975 170.044 235.065 169.919 235.118 169.779C235.172 169.638 235.188 169.486 235.165 169.337L235.173 169.373Z" fill="white"/>
<path d="M231.774 203.66C231.739 203.517 231.67 203.385 231.574 203.275C231.477 203.164 231.355 203.078 231.219 203.024C231.082 202.97 230.934 202.949 230.788 202.963C230.642 202.978 230.501 203.027 230.377 203.107L230.334 203.15C230.221 203.25 230.137 203.378 230.088 203.521C230.04 203.664 230.03 203.817 230.059 203.965C230.088 204.113 230.156 204.251 230.254 204.366C230.353 204.48 230.48 204.566 230.623 204.617C230.765 204.667 230.918 204.68 231.067 204.653C231.216 204.627 231.356 204.562 231.472 204.466C231.588 204.369 231.677 204.244 231.73 204.103C231.783 203.961 231.798 203.809 231.774 203.66Z" fill="white"/>
<path d="M226.246 192.482C226.211 192.34 226.142 192.207 226.045 192.097C225.949 191.986 225.827 191.9 225.69 191.846C225.554 191.792 225.406 191.771 225.26 191.786C225.113 191.8 224.972 191.849 224.849 191.929H224.806C224.693 192.029 224.608 192.157 224.56 192.3C224.511 192.442 224.501 192.595 224.529 192.743C224.558 192.891 224.625 193.029 224.723 193.143C224.821 193.258 224.948 193.345 225.09 193.396C225.232 193.447 225.385 193.46 225.534 193.434C225.682 193.409 225.822 193.345 225.938 193.249C226.055 193.153 226.145 193.029 226.199 192.888C226.252 192.747 226.269 192.595 226.246 192.446V192.482Z" fill="white"/>
<path d="M250.699 227.644C250.665 227.502 250.596 227.37 250.499 227.259C250.403 227.148 250.281 227.062 250.144 227.008C250.008 226.954 249.86 226.933 249.714 226.948C249.567 226.962 249.426 227.012 249.303 227.091L249.253 227.134C249.136 227.235 249.049 227.364 248.998 227.508C248.948 227.653 248.936 227.808 248.964 227.959C248.993 228.109 249.06 228.25 249.16 228.366C249.26 228.482 249.389 228.571 249.534 228.622C249.678 228.673 249.834 228.686 249.985 228.658C250.136 228.631 250.277 228.564 250.395 228.465C250.512 228.366 250.601 228.238 250.653 228.094C250.706 227.95 250.719 227.795 250.692 227.644H250.699Z" fill="white"/>
<path d="M233.459 220.745C233.428 220.6 233.362 220.465 233.267 220.35C233.172 220.236 233.05 220.147 232.913 220.09C232.775 220.034 232.626 220.012 232.477 220.026C232.329 220.04 232.187 220.09 232.062 220.171L232.012 220.214C231.899 220.315 231.814 220.443 231.766 220.586C231.718 220.729 231.708 220.882 231.737 221.03C231.766 221.178 231.833 221.316 231.932 221.43C232.031 221.544 232.158 221.631 232.3 221.681C232.443 221.732 232.596 221.744 232.745 221.718C232.894 221.691 233.033 221.626 233.149 221.53C233.266 221.433 233.355 221.308 233.408 221.167C233.461 221.025 233.476 220.873 233.452 220.724L233.459 220.745Z" fill="white"/>
<path d="M240.837 182.877C240.803 182.735 240.736 182.602 240.64 182.492C240.544 182.381 240.423 182.295 240.287 182.241C240.15 182.186 240.003 182.166 239.857 182.18C239.711 182.195 239.571 182.244 239.448 182.324L239.398 182.36C239.285 182.46 239.2 182.588 239.152 182.73C239.103 182.873 239.093 183.026 239.121 183.174C239.15 183.322 239.217 183.46 239.315 183.574C239.413 183.688 239.539 183.775 239.681 183.826C239.824 183.877 239.977 183.891 240.125 183.865C240.274 183.839 240.414 183.775 240.53 183.68C240.647 183.584 240.736 183.46 240.79 183.319C240.844 183.178 240.86 183.026 240.837 182.877Z" fill="white"/>
<path d="M214.598 209.691C214.563 209.549 214.495 209.416 214.398 209.306C214.301 209.195 214.18 209.109 214.043 209.055C213.906 209.001 213.759 208.98 213.612 208.995C213.466 209.009 213.325 209.058 213.202 209.138L213.158 209.181C213.046 209.282 212.961 209.41 212.913 209.553C212.864 209.696 212.854 209.849 212.883 209.997C212.913 210.145 212.98 210.283 213.079 210.397C213.177 210.511 213.304 210.598 213.447 210.648C213.589 210.699 213.743 210.711 213.891 210.685C214.04 210.658 214.18 210.593 214.296 210.497C214.412 210.4 214.501 210.275 214.554 210.134C214.607 209.993 214.622 209.84 214.598 209.691Z" fill="white"/>
<path d="M255.098 197.384C255.064 197.242 254.995 197.11 254.898 196.999C254.802 196.888 254.68 196.803 254.543 196.748C254.407 196.694 254.259 196.674 254.112 196.688C253.966 196.703 253.825 196.752 253.702 196.832L253.652 196.867C253.539 196.968 253.454 197.095 253.405 197.238C253.357 197.381 253.347 197.533 253.375 197.681C253.404 197.829 253.47 197.967 253.569 198.081C253.667 198.196 253.793 198.283 253.935 198.334C254.077 198.385 254.23 198.398 254.379 198.372C254.528 198.347 254.668 198.283 254.784 198.187C254.901 198.091 254.99 197.967 255.044 197.826C255.098 197.686 255.114 197.533 255.091 197.384H255.098Z" fill="white"/>
<path d="M292.668 165.252C292.633 165.109 292.564 164.977 292.468 164.866C292.371 164.756 292.249 164.67 292.113 164.616C291.976 164.561 291.828 164.541 291.682 164.555C291.535 164.57 291.395 164.619 291.271 164.699L291.221 164.742C291.108 164.842 291.023 164.97 290.975 165.113C290.927 165.256 290.917 165.409 290.946 165.557C290.975 165.705 291.042 165.843 291.141 165.957C291.24 166.072 291.367 166.158 291.509 166.209C291.652 166.259 291.805 166.272 291.954 166.245C292.103 166.219 292.242 166.154 292.358 166.057C292.475 165.961 292.564 165.836 292.617 165.694C292.67 165.553 292.685 165.4 292.661 165.252H292.668Z" fill="white"/>
<path d="M277.412 140.921C277.377 140.779 277.308 140.647 277.212 140.536C277.115 140.426 276.993 140.34 276.857 140.286C276.72 140.231 276.572 140.211 276.426 140.225C276.28 140.24 276.139 140.289 276.015 140.369L275.965 140.412C275.852 140.512 275.767 140.64 275.719 140.783C275.671 140.926 275.661 141.079 275.69 141.227C275.719 141.375 275.786 141.513 275.885 141.627C275.984 141.742 276.111 141.828 276.253 141.879C276.396 141.929 276.549 141.942 276.698 141.915C276.847 141.889 276.986 141.824 277.103 141.727C277.219 141.631 277.308 141.506 277.361 141.364C277.414 141.223 277.429 141.07 277.405 140.921H277.412Z" fill="white"/>
<path d="M247.856 143.972C247.821 143.83 247.753 143.698 247.656 143.587C247.56 143.476 247.438 143.39 247.301 143.336C247.164 143.282 247.017 143.261 246.87 143.276C246.724 143.29 246.583 143.34 246.46 143.419L246.409 143.455C246.297 143.555 246.212 143.683 246.163 143.826C246.115 143.968 246.104 144.121 246.133 144.269C246.162 144.417 246.228 144.555 246.327 144.669C246.425 144.784 246.551 144.871 246.693 144.922C246.835 144.973 246.988 144.986 247.137 144.96C247.286 144.935 247.425 144.871 247.542 144.775C247.659 144.679 247.748 144.555 247.802 144.414C247.856 144.273 247.872 144.121 247.849 143.972H247.856Z" fill="white"/>
<path d="M217.701 56.6387C212.036 60.2282 209.783 67.7735 210.848 72.2317C211.395 74.4788 212.418 76.7402 211.971 79.0016C211.59 80.9615 210.172 82.5337 209.092 84.228C207.313 87.0801 206.496 90.425 206.759 93.7736C207.023 97.1221 208.355 100.299 210.559 102.838C212.763 105.378 215.724 107.148 219.009 107.889C222.294 108.63 225.73 108.304 228.816 106.957" fill="#263238"/>
<path d="M214.346 86.0659C200.554 55.8131 233.365 40.6149 251.26 45.6546C268.083 50.3929 275.26 58.7422 278.032 69.9631C280.803 81.1841 280.666 93.3527 276.254 104.042C274.094 109.312 270.164 114.667 264.484 115.328" fill="#263238"/>
<path d="M230.508 159.946C230.27 145.488 230.097 125.637 230.097 125.716C230.097 125.795 217.665 123.656 215.052 107.46C213.771 99.3977 214.181 86.1809 214.858 75.3764C215.477 65.6487 221.934 53.717 231.652 54.7436L261.994 62.3894C263.419 62.5385 264.735 63.2163 265.682 64.2881C266.628 65.36 267.136 66.7476 267.105 68.1757L265.133 130.756" fill="#FFBE9D"/>
<path d="M220.286 85.2611C220.274 85.7992 220.474 86.3205 220.842 86.7136C221.211 87.1067 221.719 87.3403 222.258 87.3646C222.522 87.3891 222.787 87.3607 223.04 87.2811C223.292 87.2014 223.526 87.072 223.727 86.9007C223.928 86.7293 224.093 86.5195 224.212 86.2835C224.331 86.0475 224.4 85.7902 224.418 85.5267C224.428 84.9885 224.228 84.4674 223.859 84.0735C223.491 83.6797 222.984 83.4439 222.445 83.4161C222.181 83.3925 221.915 83.4219 221.663 83.5024C221.411 83.5829 221.177 83.713 220.976 83.8849C220.774 84.0568 220.61 84.2671 220.491 84.5035C220.373 84.7398 220.303 84.9974 220.286 85.2611Z" fill="#263238"/>
<path d="M241.823 85.2618C241.813 85.7986 242.013 86.3181 242.382 86.7096C242.75 87.1012 243.257 87.3338 243.795 87.3581C244.059 87.3826 244.324 87.3542 244.577 87.2745C244.829 87.1948 245.063 87.0655 245.264 86.8941C245.465 86.7228 245.63 86.5129 245.749 86.2769C245.868 86.0409 245.937 85.7836 245.955 85.5202C245.966 84.9821 245.767 84.4608 245.398 84.0677C245.029 83.6746 244.521 83.441 243.982 83.4167C243.718 83.3922 243.452 83.4208 243.199 83.5009C242.946 83.5811 242.712 83.711 242.511 83.8831C242.309 84.0552 242.144 84.266 242.026 84.5028C241.908 84.7396 241.839 84.9977 241.823 85.2618Z" fill="#263238"/>
<path d="M218.039 81.4856C218.291 81.7656 219.911 80.6528 222.15 80.7677C224.389 80.8825 225.994 82.0168 226.253 81.7512C226.375 81.6363 226.123 81.141 225.425 80.5954C224.479 79.8904 223.337 79.4965 222.157 79.4682C220.991 79.4274 219.841 79.7567 218.874 80.4087C218.169 80.8969 217.917 81.3564 218.039 81.4856Z" fill="#263238"/>
<path d="M239.333 82.017C239.592 82.2898 241.169 81.1125 243.408 81.1125C245.646 81.1125 247.302 82.218 247.54 81.9452C247.662 81.8232 247.396 81.335 246.676 80.8181C245.704 80.1481 244.546 79.7968 243.364 79.813C242.199 79.813 241.063 80.1853 240.125 80.8755C239.434 81.4068 239.204 81.895 239.333 82.017Z" fill="#263238"/>
<path d="M231.644 99.247C231.644 99.1178 230.262 98.8809 228.002 98.5865C227.426 98.5291 226.886 98.4142 226.792 98.0266C226.741 97.4361 226.874 96.8443 227.174 96.3323C227.707 94.9539 228.275 93.5037 228.866 91.9818C231.219 85.7934 232.918 80.6962 232.666 80.6029C232.414 80.5095 230.305 85.4559 227.959 91.6515L226.332 96.0308C225.971 96.7192 225.867 97.5127 226.037 98.2707C226.12 98.4717 226.248 98.6511 226.412 98.7954C226.575 98.9396 226.769 99.045 226.98 99.1034C227.296 99.1922 227.623 99.2381 227.951 99.2398C230.226 99.3619 231.637 99.3691 231.644 99.247Z" fill="#263238"/>
<path d="M230.096 125.716C237.749 125.833 245.284 123.83 251.864 119.93C251.864 119.93 246.364 131.201 230.096 129.686V125.716Z" fill="#EB996E"/>
<path d="M238.779 78.8368C238.995 79.447 241.241 79.1526 243.868 79.4757C246.495 79.7988 248.626 80.5023 248.979 79.9567C249.137 79.6983 248.763 79.1239 247.906 78.5209C246.76 77.7998 245.465 77.3481 244.118 77.2001C242.771 77.0521 241.408 77.2116 240.132 77.6666C239.167 78.0686 238.678 78.5496 238.779 78.8368Z" fill="#263238"/>
<path d="M218.557 75.8717C218.953 76.3814 220.501 75.8717 222.358 75.8286C224.215 75.7856 225.792 76.1732 226.152 75.642C226.31 75.3835 226.065 74.8738 225.374 74.3928C224.456 73.8019 223.377 73.5108 222.286 73.56C221.195 73.5813 220.137 73.9373 219.255 74.5795C218.6 75.0892 218.384 75.6133 218.557 75.8717Z" fill="#263238"/>
<path d="M264.319 89.511C264.556 89.3962 273.022 85.663 273.123 95.3692C273.223 105.075 263.426 103.173 263.405 102.893C263.383 102.613 264.319 89.511 264.319 89.511Z" fill="#FFBE9D"/>
<path d="M266.341 99.1756C266.384 99.1756 266.514 99.2905 266.802 99.4197C267.209 99.5812 267.662 99.5812 268.069 99.4197C269.091 99.0321 269.94 97.3952 269.969 95.6435C269.991 94.8121 269.821 93.9869 269.472 93.2313C269.379 92.9284 269.213 92.6529 268.989 92.4289C268.764 92.2048 268.488 92.0391 268.184 91.9463C267.989 91.8962 267.782 91.9163 267.601 92.0029C267.419 92.0896 267.274 92.2373 267.19 92.4201C267.061 92.6929 267.126 92.8867 267.075 92.9011C267.025 92.9155 266.859 92.7432 266.939 92.3411C266.989 92.1009 267.122 91.8854 267.313 91.7309C267.444 91.6286 267.594 91.5531 267.755 91.5087C267.916 91.4644 268.083 91.452 268.249 91.4725C268.649 91.5474 269.023 91.7234 269.335 91.9836C269.648 92.2437 269.888 92.5794 270.034 92.9585C270.458 93.7945 270.67 94.7212 270.653 95.6579C270.61 97.6106 269.624 99.4556 268.22 99.872C267.959 99.9504 267.685 99.9698 267.416 99.9288C267.147 99.8878 266.89 99.7875 266.665 99.6351C266.363 99.4126 266.312 99.19 266.341 99.1756Z" fill="#EB996E"/>
<path d="M228.413 49.9414C223 52.7341 220.768 63.7755 223.007 69.4327C225.246 75.0898 231.285 77.8466 237.238 79.146C243.192 80.4454 249.03 80.5819 254.904 78.9737C255.307 82.9079 257.675 86.9497 261.505 87.9907C266.58 89.3619 271.691 84.7314 272.821 79.6127C273.951 74.494 272.252 69.2245 270.582 64.2494" fill="#263238"/>
<path d="M271.352 85.1533C271.352 85.1533 271.107 85.4405 270.596 85.8712C269.881 86.4742 269.134 87.0375 268.357 87.5583C267.196 88.3573 265.919 88.9746 264.571 89.389C262.887 89.9186 261.076 89.8909 259.409 89.31C257.768 88.6506 256.393 87.4663 255.501 85.943C254.777 84.7263 254.301 83.3799 254.097 81.9801C253.955 81.0492 253.904 80.1067 253.946 79.1659C253.93 78.8217 253.971 78.4773 254.068 78.1465C254.176 78.1465 254.068 79.6182 254.486 81.9083C254.732 83.2391 255.22 84.5138 255.925 85.6702C256.78 87.0736 258.065 88.1659 259.589 88.7859C261.149 89.3233 262.839 89.3585 264.42 88.8864C265.727 88.5092 266.975 87.951 268.127 87.2281C270.128 85.9789 271.294 85.0743 271.352 85.1533Z" fill="#263238"/>
<path d="M232.307 105.478C232.594 106.319 233.001 107.115 233.517 107.84C233.776 108.203 234.109 108.506 234.496 108.73C234.882 108.955 235.311 109.094 235.756 109.139C236.23 109.136 236.697 109.015 237.114 108.789C237.531 108.562 237.885 108.236 238.146 107.84C238.647 107.027 238.879 106.077 238.808 105.126C238.772 104.272 238.376 103.252 237.526 103.152C237.169 103.139 236.815 103.218 236.497 103.381L232.02 105.191" fill="#EB996E"/>
<path d="M234.091 109.146C234.091 109.01 235.099 109.404 236.481 108.852C237.265 108.55 237.909 107.969 238.288 107.222C238.503 106.766 238.619 106.271 238.629 105.767C238.639 105.264 238.542 104.764 238.346 104.3C238.242 104.064 238.112 103.839 237.957 103.632C237.777 103.446 237.806 103.453 237.619 103.482C237.432 103.51 237.136 103.668 236.899 103.762L236.179 104.063C235.222 104.451 234.351 104.781 233.624 105.061C232.184 105.607 231.226 105.894 231.183 105.779C231.14 105.664 231.989 105.205 233.4 104.53C234.12 104.192 234.948 103.812 235.891 103.374L236.611 103.051C236.877 102.943 237.072 102.828 237.432 102.714C237.647 102.642 237.879 102.642 238.094 102.714C238.291 102.797 238.462 102.931 238.591 103.101C239.071 103.724 239.361 104.472 239.426 105.255C239.491 106.038 239.329 106.823 238.958 107.516C238.719 107.956 238.395 108.345 238.004 108.659C237.614 108.973 237.165 109.207 236.683 109.347C236.057 109.552 235.387 109.579 234.747 109.426C234.286 109.347 234.077 109.196 234.091 109.146Z" fill="#263238"/>
<path d="M275.253 82.8566C274.259 82.7849 266.218 83.8258 266.852 98.7225C267.442 112.643 277.232 109.577 280.356 104.337C283.293 99.3758 285.007 83.5387 275.253 82.8566Z" fill="#455A64"/>
<path d="M280.2 84.6151C280.177 84.487 280.165 84.3574 280.164 84.2274C280.164 83.9331 280.164 83.5598 280.121 83.0859C280.121 82.0593 280.049 80.6235 279.998 78.8431C279.926 75.1889 279.826 70.0989 279.703 64.2336L279.883 64.4059H275.744L275.931 64.2192C275.931 65.3248 275.989 66.495 276.025 67.6867C276.161 73.2721 276.291 78.4554 276.399 82.8418V82.9711H276.277C274.577 83.3619 273.067 84.3318 272.008 85.7135C271.205 86.7849 270.625 88.0052 270.302 89.303C270.086 90.1392 269.939 90.9916 269.863 91.8516C269.863 92.146 269.827 92.3757 269.82 92.5265C269.812 92.6772 269.82 92.7634 269.82 92.7634C269.81 92.6847 269.81 92.6052 269.82 92.5265C269.82 92.3757 269.82 92.146 269.82 91.8444C269.855 90.9733 269.975 90.1077 270.18 89.26C270.48 87.9241 271.051 86.6635 271.857 85.5555C272.943 84.1171 274.499 83.1016 276.255 82.6839L276.133 82.8418C276.01 78.4841 275.859 73.2793 275.701 67.6867C275.665 66.5022 275.636 65.332 275.607 64.2192V64.0254H280.121V64.2049C280.185 70.0774 280.243 75.1602 280.286 78.8215C280.286 80.602 280.286 82.0378 280.286 83.0644C280.286 83.5382 280.286 83.9115 280.286 84.1987C280.277 84.3408 280.248 84.4809 280.2 84.6151Z" fill="#455A64"/>
<path d="M275.252 64.2261C275.252 64.2261 271.048 54.4194 261.035 49.5735C257.206 47.6713 253.183 46.1839 249.035 45.1368C249.035 45.1368 254.88 43.7584 264.332 47.951C268.651 49.8607 272.97 52.3375 275.85 56.0634C277.664 58.4254 279.939 63.0415 279.931 64.2261H275.252Z" fill="#455A64"/>
<path d="M249.34 183.021C249.34 183.021 249.397 182.949 249.52 182.827C249.642 182.705 249.829 182.518 250.06 182.267C250.75 181.538 251.399 180.771 252.003 179.969C252.964 178.687 253.842 177.344 254.631 175.949C255.567 174.32 256.546 172.396 257.604 170.249C259.727 165.941 262.182 160.758 264.73 154.8C265.997 151.82 267.293 148.654 268.589 145.316L269.553 142.789C269.857 141.904 270.245 141.051 270.712 140.24C271.211 139.4 271.933 138.714 272.8 138.259C273.241 138.017 273.736 137.891 274.24 137.893C274.514 137.912 274.778 138.006 275.003 138.166C275.215 138.337 275.381 138.559 275.485 138.812V138.862V138.919C275.424 139.261 275.291 139.586 275.096 139.874C274.879 140.174 274.559 140.383 274.196 140.463C273.505 140.558 272.801 140.43 272.188 140.097C271.545 139.797 271.02 139.292 270.698 138.661C270.376 138.03 270.274 137.31 270.41 136.615C270.557 135.901 270.978 135.272 271.583 134.863C272.181 134.447 272.9 134.243 273.628 134.282C274.004 134.284 274.374 134.381 274.704 134.563C275.033 134.744 275.312 135.006 275.514 135.323C275.616 135.504 275.663 135.711 275.65 135.918C275.637 136.126 275.565 136.325 275.442 136.493C275.204 136.793 274.888 137.022 274.528 137.153C273.924 137.382 273.263 137.411 272.641 137.235C272.02 137.059 271.472 136.688 271.079 136.177C270.697 135.656 270.529 135.008 270.612 134.368C270.675 133.744 270.926 133.153 271.331 132.673C271.744 132.189 272.32 131.873 272.951 131.783C273.27 131.742 273.593 131.775 273.897 131.879C274.201 131.984 274.476 132.158 274.7 132.386C274.93 132.634 275.054 132.961 275.046 133.298C275.042 133.466 275.003 133.632 274.931 133.784C274.859 133.936 274.756 134.071 274.628 134.181C274.393 134.392 274.112 134.545 273.807 134.627C273.502 134.709 273.181 134.719 272.872 134.655C272.572 134.577 272.293 134.437 272.051 134.244C271.809 134.051 271.61 133.809 271.468 133.535C271.189 133.02 271.011 132.458 270.943 131.877C270.74 130.748 270.872 129.585 271.324 128.531C271.576 127.993 272.013 127.563 272.555 127.318C273.109 127.113 273.722 127.134 274.261 127.375C274.544 127.477 274.792 127.655 274.979 127.89C275.166 128.124 275.284 128.406 275.319 128.703C275.334 129.008 275.254 129.309 275.09 129.566C274.926 129.823 274.687 130.023 274.405 130.139C274.149 130.27 273.865 130.339 273.577 130.339C273.289 130.339 273.006 130.27 272.75 130.139C272.262 129.859 271.896 129.409 271.72 128.876C271.557 128.37 271.525 127.832 271.627 127.311C271.683 126.803 271.794 126.302 271.958 125.817C272.12 125.319 272.422 124.878 272.829 124.547C273.228 124.227 273.692 124 274.189 123.879C274.448 123.805 274.722 123.805 274.981 123.879C275.229 123.965 275.453 124.107 275.636 124.295C275.819 124.475 275.964 124.69 276.061 124.927C276.165 125.183 276.165 125.469 276.061 125.724C275.945 125.96 275.759 126.156 275.529 126.284C275.299 126.412 275.035 126.467 274.772 126.442C274.285 126.435 273.812 126.277 273.419 125.99C272.673 125.441 272.16 124.635 271.979 123.728C271.791 122.833 271.932 121.901 272.375 121.101C272.57 120.717 272.848 120.381 273.189 120.117C273.525 119.863 273.917 119.693 274.333 119.622C274.749 119.538 275.181 119.599 275.557 119.794C275.743 119.895 275.901 120.04 276.017 120.217C276.132 120.393 276.202 120.596 276.219 120.806C276.217 121.203 276.083 121.587 275.838 121.899C275.593 122.21 275.251 122.432 274.866 122.529C274.505 122.606 274.129 122.579 273.783 122.452C273.437 122.325 273.133 122.103 272.908 121.811C272.476 121.292 272.223 120.648 272.188 119.974C272.251 118.8 272.493 117.642 272.908 116.542C273.203 115.508 273.469 114.561 273.714 113.713C274.196 112.026 274.571 110.713 274.837 109.808C274.959 109.37 275.06 109.033 275.132 108.796C275.204 108.559 275.247 108.451 275.247 108.451C275.247 108.451 275.247 108.573 275.168 108.803C275.089 109.033 275.017 109.392 274.909 109.83C274.664 110.741 274.304 112.062 273.851 113.749L273.081 116.585C272.836 117.626 272.361 118.739 272.411 119.959C272.463 120.591 272.715 121.189 273.131 121.668C273.33 121.925 273.597 122.122 273.903 122.237C274.208 122.351 274.539 122.378 274.859 122.314C275.182 122.231 275.47 122.047 275.68 121.788C275.89 121.53 276.011 121.211 276.025 120.878C276.01 120.71 275.954 120.547 275.861 120.406C275.768 120.264 275.641 120.148 275.492 120.067C275.167 119.906 274.797 119.858 274.441 119.931C274.064 119.995 273.708 120.15 273.405 120.383C273.103 120.627 272.857 120.933 272.685 121.28C272.328 122.017 272.234 122.852 272.418 123.649C272.591 124.483 273.069 125.222 273.757 125.724C274.102 125.971 274.513 126.109 274.938 126.119C275.137 126.143 275.339 126.106 275.517 126.012C275.694 125.918 275.839 125.773 275.931 125.595C275.976 125.396 275.963 125.188 275.896 124.995C275.829 124.802 275.709 124.632 275.55 124.504C275.401 124.354 275.222 124.239 275.024 124.166C274.819 124.113 274.603 124.113 274.398 124.166C273.945 124.264 273.524 124.476 273.175 124.781C272.826 125.087 272.561 125.475 272.404 125.911C272.247 126.376 272.143 126.858 272.094 127.347C271.997 127.825 272.027 128.32 272.181 128.782C272.324 129.234 272.632 129.616 273.045 129.852C273.254 129.956 273.484 130.011 273.718 130.011C273.951 130.011 274.182 129.956 274.391 129.852C274.606 129.769 274.79 129.621 274.919 129.43C275.048 129.239 275.115 129.013 275.111 128.782C275.079 128.551 274.983 128.332 274.835 128.151C274.686 127.97 274.49 127.833 274.268 127.756C273.812 127.557 273.298 127.539 272.829 127.706C272.369 127.92 271.999 128.288 271.785 128.747C271.372 129.738 271.254 130.827 271.447 131.884C271.51 132.419 271.674 132.938 271.929 133.413C272.046 133.641 272.21 133.843 272.409 134.005C272.609 134.166 272.84 134.285 273.088 134.353C273.341 134.408 273.603 134.402 273.853 134.335C274.104 134.269 274.335 134.145 274.528 133.973C274.618 133.893 274.691 133.796 274.743 133.688C274.794 133.579 274.823 133.461 274.828 133.341C274.833 133.221 274.813 133.101 274.77 132.989C274.727 132.877 274.662 132.774 274.578 132.688C274.391 132.503 274.164 132.364 273.914 132.28C273.665 132.197 273.399 132.172 273.138 132.207C272.597 132.286 272.105 132.562 271.756 132.982C271.379 133.386 271.148 133.905 271.101 134.456C271.054 135.006 271.193 135.557 271.497 136.019C271.843 136.461 272.321 136.782 272.862 136.934C273.404 137.086 273.979 137.063 274.506 136.866C274.788 136.751 275.036 136.565 275.226 136.328C275.307 136.216 275.354 136.084 275.362 135.946C275.369 135.809 275.337 135.672 275.269 135.552C275.096 135.294 274.861 135.082 274.586 134.935C274.311 134.789 274.004 134.712 273.693 134.712C273.056 134.663 272.423 134.84 271.905 135.212C271.387 135.584 271.018 136.127 270.864 136.744C270.746 137.344 270.831 137.965 271.104 138.511C271.378 139.058 271.824 139.499 272.375 139.766C272.91 140.069 273.529 140.19 274.139 140.111C274.413 140.026 274.656 139.861 274.836 139.637C275.015 139.413 275.124 139.141 275.147 138.855V138.962C275.077 138.764 274.95 138.59 274.783 138.463C274.615 138.335 274.414 138.259 274.204 138.244C273.757 138.242 273.318 138.356 272.929 138.575C272.118 138.998 271.442 139.64 270.979 140.427C270.522 141.214 270.144 142.044 269.849 142.904L268.87 145.438C267.574 148.769 266.264 151.899 264.982 154.914C262.42 160.873 259.943 166.071 257.784 170.349C256.711 172.503 255.718 174.406 254.76 176.035C253.954 177.425 253.057 178.761 252.075 180.034C251.273 181.124 250.356 182.126 249.34 183.021Z" fill="white"/>
<path d="M283.957 75.8725C283.869 74.96 283.649 74.0651 283.302 73.2162C282.256 70.9328 280.421 69.1007 278.133 68.0544C276.562 67.3467 274.873 66.9353 273.152 66.8412C271.171 66.7395 269.185 66.8891 267.242 67.2863C263.117 68.0472 258.783 69.8205 253.932 70.5528C251.566 70.8652 249.17 70.8652 246.805 70.5528C244.609 70.2229 242.459 69.6399 240.398 68.8154C236.899 67.41 233.717 65.3206 231.04 62.6701C229.238 60.8978 227.714 58.8648 226.52 56.6396C226.318 56.3005 226.14 55.9479 225.987 55.5843L225.641 54.7874C225.555 54.5936 225.49 54.4285 225.433 54.2992C225.405 54.245 225.386 54.1869 225.375 54.127C225.413 54.1754 225.444 54.2285 225.469 54.2849L225.706 54.7587L226.088 55.5341C226.252 55.8929 226.439 56.2407 226.649 56.575C227.884 58.7528 229.426 60.7426 231.227 62.4834C235.478 66.6346 240.94 69.332 246.827 70.1866C249.158 70.4954 251.521 70.4954 253.852 70.1866C258.639 69.4687 262.98 67.7026 267.155 66.956C269.126 66.5633 271.139 66.4234 273.145 66.5396C274.902 66.6459 276.624 67.0819 278.22 67.8247C280.547 68.9119 282.393 70.8123 283.41 73.1659C283.663 73.8066 283.83 74.4776 283.906 75.1617V75.693C283.932 75.7499 283.949 75.8105 283.957 75.8725Z" fill="#455A64"/>
<path d="M273.093 60.3999C272.923 60.4415 272.75 60.4703 272.575 60.4861C272.237 60.5363 271.733 60.6081 271.092 60.723C269.811 60.9312 267.975 61.3404 265.715 61.9004C263.07 62.6112 260.378 63.1319 257.659 63.4582C254.318 63.7995 250.947 63.7248 247.625 63.2357C244.301 62.7548 241.046 61.8824 237.928 60.6368C235.372 59.6278 232.924 58.3651 230.622 56.8678C229.657 56.2145 228.793 55.6115 228.059 55.0371C227.325 54.4628 226.706 53.9674 226.231 53.5223L225.136 52.4957C224.892 52.2588 224.762 52.1296 224.776 52.1152C224.923 52.21 225.06 52.3181 225.187 52.4383L226.324 53.4075C226.814 53.8382 227.469 54.2977 228.189 54.8433C228.908 55.3889 229.801 55.9848 230.766 56.6165C235.897 59.845 241.65 61.9653 247.653 62.8408C250.95 63.3222 254.293 63.4042 257.609 63.0849C260.312 62.7918 262.992 62.312 265.628 61.6491C267.896 61.125 269.753 60.7517 271.049 60.5794C271.697 60.4933 272.201 60.443 272.546 60.4215C272.727 60.3955 272.911 60.3882 273.093 60.3999Z" fill="#455A64"/>
<path d="M274.159 108.502C274.062 108.483 273.968 108.454 273.878 108.415C273.627 108.31 273.386 108.183 273.158 108.035C272.288 107.464 271.565 106.697 271.049 105.795C270.311 104.446 269.869 102.956 269.753 101.423C269.587 99.5696 269.587 97.7052 269.753 95.8519C269.909 93.9992 270.217 92.1623 270.675 90.3599C271.002 88.8712 271.542 87.4374 272.28 86.1027C272.811 85.1973 273.551 84.4318 274.439 83.87C274.666 83.7212 274.907 83.5961 275.159 83.4967C275.339 83.432 275.44 83.4033 275.44 83.4177C275.44 83.432 275.073 83.5828 274.49 83.992C273.676 84.586 273.003 85.3506 272.517 86.2319C271.825 87.5606 271.321 88.9789 271.02 90.446C270.583 92.2345 270.285 94.0537 270.128 95.8878C269.977 97.7178 269.977 99.557 270.128 101.387C270.219 102.889 270.621 104.355 271.308 105.694C271.783 106.583 272.452 107.353 273.266 107.949C273.813 108.329 274.18 108.466 274.159 108.502Z" fill="#263238"/>
<path d="M241.781 106.283L234.392 107.729C233.28 107.947 232.556 109.022 232.774 110.131L232.828 110.406C233.046 111.514 234.124 112.237 235.236 112.019L242.625 110.574C243.737 110.356 244.461 109.281 244.243 108.172L244.189 107.897C243.971 106.788 242.893 106.066 241.781 106.283Z" fill="#455A64"/>
<path d="M243.199 107.373L277.356 96.6904C277.762 96.564 278.201 96.6024 278.579 96.7973C278.956 96.9923 279.241 97.328 279.372 97.7314C279.438 97.9387 279.461 98.1572 279.44 98.3737C279.419 98.5902 279.355 98.8003 279.251 98.9913C279.147 99.1824 279.005 99.3505 278.834 99.4856C278.663 99.6207 278.466 99.7199 278.256 99.7774L243.329 109.182L243.199 107.373Z" fill="#455A64"/>
<path d="M268.444 102.678C268.81 102.517 269.188 102.385 269.575 102.283L272.699 101.336C274.009 100.934 275.621 100.503 277.32 99.95C277.74 99.794 278.121 99.549 278.436 99.2321C278.747 98.916 278.92 98.4903 278.918 98.0475C278.917 97.8299 278.846 97.6184 278.717 97.4431C278.588 97.2678 278.406 97.1376 278.198 97.0711C277.724 96.9507 277.225 96.9656 276.759 97.1142L266.515 100.402L263.398 101.364C263.041 101.511 262.673 101.629 262.297 101.716C262.657 101.541 263.03 101.395 263.413 101.278L266.494 100.201C269.107 99.3182 272.692 98.0906 276.723 96.8055C277.259 96.6508 277.828 96.6508 278.364 96.8055C278.638 96.9041 278.875 97.0831 279.045 97.319C279.214 97.5548 279.308 97.8363 279.314 98.1265C279.315 98.664 279.103 99.18 278.724 99.5623C278.345 99.8941 277.898 100.139 277.414 100.28C275.65 100.833 274.074 101.221 272.742 101.594L269.618 102.434C269.235 102.552 268.842 102.634 268.444 102.678Z" fill="#263238"/>
<path d="M212.625 76.5898C213.792 80.6819 209.624 84.1925 208.155 88.1913C206.715 92.0537 207.939 96.3827 209.688 100.116C211.438 103.849 213.741 107.381 214.634 111.394C216.844 121.301 207.86 131.977 209.595 141.977C210.214 145.624 211.69 149.429 212.964 152.897C214.195 156.167 214.195 159.771 212.964 163.041C211.02 168.784 207.723 171.476 205.405 177.062C204.217 179.933 204.311 183.121 204.369 186.208C204.426 189.295 204.412 192.525 203.03 195.296C201.648 198.068 198.495 200.207 195.5 199.403C197.116 201.209 199.284 202.433 201.668 202.886C204.052 203.339 206.519 202.995 208.688 201.908C212.625 199.812 214.828 195.562 216.714 191.527C225.842 171.993 230.672 170.342 230.391 148.79C230.391 147.405 230.118 125.817 230.118 125.817C228.226 125.311 226.412 124.55 224.726 123.556C214.533 116.534 214.159 104.028 214.238 94.3294" fill="#263238"/>
<path d="M232.998 141.977V150.111C232.998 150.111 226.728 182.022 224.842 199.747C222.956 217.472 222.646 222.153 222.646 222.153C222.646 222.153 227.146 229.153 236.554 217.264C245.963 205.375 247.64 203.502 251.405 203.293C251.405 203.293 246.805 153.449 247.014 151.604C247.247 150.295 247.823 149.072 248.684 148.057L232.998 141.977Z" fill="#FFBE9D"/>
<path d="M245.336 123.628C245.336 123.628 235.093 137.182 234.258 139.048C233.423 140.915 232.998 141.963 232.998 141.963L248.684 148.015L263.952 131.331L269.596 116.52L267.918 99.0032C267.918 99.0032 264.578 98.795 263.952 101.717C263.568 103.567 263.425 105.459 263.527 107.345L258.848 103.591L251.297 101.301C251.297 101.301 249.519 104.215 252.449 105.68C255.378 107.144 256.213 107.116 256.213 107.116L258.848 111.703L257.696 116.843L252.355 111.818C251.838 111.331 251.166 111.04 250.456 110.995C249.746 110.95 249.042 111.155 248.468 111.574L245.012 114.072L241.78 112.636L235.51 118.229L232.998 120.519C232.998 120.519 234.675 123.649 238.037 122.192L241.384 120.756L245.336 123.628Z" fill="#FFBE9D"/>
<path d="M232.997 144.726C232.988 144.58 232.988 144.434 232.997 144.288C232.997 144.001 233.033 143.57 233.098 143.017C233.182 142.327 233.314 141.643 233.494 140.971C233.718 140.043 234.087 139.156 234.588 138.343C236.935 134.754 240.628 129.729 245.235 123.547V123.734L241.261 120.819H241.398L239.332 121.731C238.623 122.076 237.886 122.362 237.129 122.585C236.306 122.782 235.439 122.683 234.682 122.305C233.911 121.91 233.272 121.302 232.839 120.554L232.781 120.453L232.875 120.367C235.567 117.84 238.569 115.291 241.65 112.563L241.743 112.484L241.844 112.542L244.63 114.186H244.45L247.704 112.032C248.273 111.666 248.784 111.314 249.395 110.941C249.729 110.776 250.101 110.705 250.472 110.737C250.842 110.768 251.197 110.901 251.497 111.12L257.839 116.469L257.544 116.569C257.89 115.026 258.264 113.353 258.638 111.666V111.795L256.004 107.208L256.169 107.301C255.722 107.24 255.284 107.122 254.866 106.949C254.456 106.798 254.046 106.626 253.635 106.447C253.225 106.267 252.822 106.066 252.419 105.872C252.21 105.772 252.009 105.635 251.807 105.521C251.61 105.38 251.427 105.222 251.26 105.047C251.018 104.791 250.83 104.49 250.706 104.161C250.583 103.832 250.526 103.481 250.54 103.13C250.563 102.444 250.753 101.774 251.094 101.177L251.166 101.055L251.31 101.098L258.854 103.396H258.89L263.569 107.15L263.274 107.308C263.173 105.449 263.306 103.585 263.67 101.759C263.747 101.288 263.922 100.838 264.185 100.44C264.448 100.042 264.793 99.7032 265.196 99.447C266.001 98.9733 266.926 98.7415 267.86 98.7794H268.054V98.9373C268.644 105.162 269.199 111.034 269.71 116.454V116.49C267.622 121.946 265.722 126.9 264.037 131.286L252.217 144.295L249.007 147.762C248.64 148.143 248.359 148.444 248.165 148.653L247.869 148.947C247.869 148.947 247.956 148.832 248.136 148.624L248.949 147.712L252.117 144.202L263.879 131.279V131.315L269.494 116.497V116.569C268.968 111.149 268.407 105.284 267.802 99.0522L267.968 99.2173C267.109 99.1823 266.259 99.3968 265.52 99.8347C265.158 100.065 264.848 100.37 264.614 100.729C264.379 101.088 264.224 101.493 264.16 101.917C263.799 103.709 263.668 105.54 263.771 107.366V107.782L263.447 107.524L258.696 103.747H258.761L251.217 101.457L251.425 101.371C251.122 101.912 250.952 102.517 250.929 103.137C250.916 103.441 250.964 103.744 251.07 104.029C251.176 104.314 251.339 104.574 251.548 104.795C251.697 104.947 251.858 105.087 252.03 105.212C252.225 105.32 252.397 105.434 252.599 105.535C253.002 105.729 253.398 105.93 253.801 106.102C254.559 106.471 255.359 106.748 256.184 106.928H256.299L256.342 106.999L258.977 111.587L259.013 111.652V111.723C258.631 113.41 258.293 115.083 257.911 116.627L257.847 116.928L257.609 116.727L251.289 111.393C251.043 111.211 250.752 111.099 250.447 111.072C250.142 111.044 249.836 111.1 249.561 111.235C249.028 111.551 248.453 111.953 247.905 112.305L244.644 114.459L244.558 114.516L244.465 114.466L241.679 112.815H241.88C238.799 115.528 235.79 118.077 233.091 120.59L233.127 120.403C233.524 121.096 234.114 121.659 234.826 122.025C235.519 122.377 236.316 122.469 237.072 122.284C237.813 122.067 238.535 121.791 239.231 121.458L241.297 120.554H241.376L241.441 120.597L245.408 123.526L245.515 123.605L245.436 123.712C240.808 129.894 237.079 134.876 234.703 138.43C234.203 139.228 233.827 140.097 233.587 141.007C233.404 141.672 233.262 142.348 233.163 143.031C233.084 143.584 233.048 144.015 233.026 144.295C233.004 144.575 232.997 144.726 232.997 144.726Z" fill="#EB996E"/>
<path d="M252.404 126.765C252.332 126.765 252.605 125.66 252.72 123.894C252.796 122.864 252.628 121.831 252.231 120.878C251.63 119.762 250.774 118.803 249.733 118.078C247.873 116.656 245.933 115.34 243.924 114.137L242.088 113.06C241.852 112.944 241.63 112.802 241.426 112.637C241.679 112.698 241.922 112.797 242.146 112.931C242.606 113.139 243.261 113.469 244.053 113.907C246.113 115.054 248.086 116.349 249.956 117.784C251.045 118.542 251.93 119.555 252.533 120.735C252.947 121.738 253.1 122.83 252.979 123.908C252.918 124.62 252.8 125.325 252.627 126.019C252.588 126.277 252.513 126.528 252.404 126.765Z" fill="#EB996E"/>
<path d="M263.381 120.259C263.427 119.627 263.516 118.999 263.648 118.378C263.872 116.881 263.98 115.369 263.972 113.856C263.952 112.338 263.818 110.823 263.569 109.326C263.43 108.71 263.331 108.087 263.273 107.459C263.538 108.037 263.724 108.648 263.828 109.275C264.492 112.288 264.519 115.405 263.907 118.429C263.814 119.059 263.637 119.675 263.381 120.259Z" fill="#EB996E"/>
<path d="M193.474 67.0636L185.988 53.8756C190.624 46.3654 192.276 37.3974 190.619 28.7342C188.962 20.071 184.116 12.3392 177.033 7.05849C169.95 1.77774 161.143 -0.670011 152.343 0.196336C143.542 1.06268 135.385 5.18047 129.474 11.7403C123.563 18.3002 120.326 26.8278 120.4 35.6468C120.473 44.4659 123.851 52.9387 129.87 59.4C135.889 65.8612 144.114 69.8435 152.928 70.5641C161.742 71.2848 170.507 68.6917 177.501 63.2946L193.474 67.0636Z" fill="#263238"/>
<path d="M193.476 67.0634L177.452 63.4021H177.315L177.401 63.2872L177.531 63.4164C175.286 65.1546 172.843 66.6221 170.253 67.7885C167.17 69.1646 163.904 70.0929 160.557 70.5453C158.702 70.803 156.828 70.8967 154.956 70.8253C153.999 70.775 153.013 70.7463 152.027 70.6673L149.039 70.2151C140.136 68.4574 132.239 63.3787 126.961 56.0148C124.015 51.9463 121.977 47.295 120.986 42.3745C119.964 37.179 120.106 31.8222 121.404 26.6881C122.738 21.3218 125.337 16.3503 128.984 12.1863L130.424 10.5997C130.899 10.0685 131.468 9.63054 131.979 9.1639C132.489 8.65835 133.025 8.17912 133.584 7.72807L135.283 6.46455C135.842 6.05137 136.429 5.67717 137.039 5.34461L138.832 4.26056L140.71 3.36317C141.322 3.04089 141.954 2.76027 142.604 2.52322C147.634 0.541446 153.045 -0.290195 158.44 0.0894986C163.545 0.446313 168.509 1.91677 172.982 4.39697C181.021 8.85879 187.032 16.2336 189.769 24.9938C190.868 28.7216 191.387 32.5955 191.309 36.4804C191.215 39.8463 190.633 43.1808 189.581 46.3804C188.702 49.0428 187.511 51.5923 186.033 53.9759V53.8826L193.454 67.1137C193.137 66.5609 190.733 62.4042 185.874 53.9687V53.9257V53.8826C187.329 51.5043 188.501 48.9649 189.365 46.3158C190.392 43.1313 190.956 39.817 191.043 36.4732C191.105 32.6231 190.579 28.786 189.481 25.0943C186.747 16.4211 180.779 9.12542 172.809 4.71284C168.377 2.27162 163.463 0.828293 158.412 0.484346C153.067 0.108874 147.707 0.935691 142.726 2.90371C142.084 3.13836 141.459 3.41661 140.854 3.73648L138.997 4.63387L137.219 5.71074C136.611 6.0474 136.031 6.43149 135.484 6.8594L133.8 8.10857C133.231 8.5106 132.749 9.03467 132.216 9.48695C131.683 9.93924 131.151 10.4059 130.676 10.9228L129.236 12.4878C125.628 16.6119 123.057 21.5338 121.735 26.846C120.45 31.9281 120.305 37.2302 121.31 42.3745C122.292 47.239 124.304 51.8382 127.213 55.864C132.453 63.1454 140.27 68.1718 149.082 69.9279L152.041 70.3802C153.02 70.4663 153.999 70.4879 154.92 70.5453C156.777 70.6201 158.636 70.5336 160.478 70.2869C166.632 69.4741 172.461 67.0517 177.373 63.2657L177.934 62.8349L177.502 63.4021L177.445 63.2513L193.476 67.0634Z" fill="#263238"/>
<path d="M148.175 35.4029C148.175 35.9709 148.006 36.5261 147.69 36.9983C147.373 37.4705 146.923 37.8386 146.397 38.0559C145.871 38.2733 145.292 38.3302 144.734 38.2194C144.175 38.1086 143.662 37.8351 143.259 37.4335C142.857 37.0318 142.582 36.5202 142.471 35.9631C142.36 35.4061 142.417 34.8287 142.635 34.304C142.853 33.7792 143.222 33.3308 143.696 33.0152C144.169 32.6997 144.726 32.5312 145.295 32.5312C146.059 32.5312 146.792 32.8338 147.331 33.3723C147.871 33.9109 148.175 34.6413 148.175 35.4029Z" fill="white"/>
<path d="M159.665 35.4029C159.665 35.9709 159.496 36.5261 159.18 36.9983C158.863 37.4705 158.414 37.8386 157.888 38.0559C157.361 38.2733 156.782 38.3302 156.224 38.2194C155.665 38.1086 155.152 37.8351 154.75 37.4335C154.347 37.0318 154.073 36.5202 153.962 35.9631C153.85 35.4061 153.907 34.8287 154.125 34.304C154.343 33.7792 154.712 33.3308 155.186 33.0152C155.659 32.6997 156.216 32.5312 156.786 32.5312C157.549 32.5312 158.282 32.8338 158.822 33.3723C159.362 33.9109 159.665 34.6413 159.665 35.4029Z" fill="white"/>
<path d="M171.131 33.9683C171.417 34.46 171.551 35.0253 171.515 35.5928C171.479 36.1602 171.274 36.7042 170.928 37.1558C170.581 37.6073 170.108 37.9462 169.569 38.1293C169.029 38.3125 168.447 38.3317 167.896 38.1846C167.345 38.0374 166.851 37.7306 166.475 37.3028C166.099 36.8751 165.86 36.3458 165.786 35.782C165.712 35.2182 165.808 34.6452 166.061 34.1358C166.314 33.6263 166.713 33.2032 167.208 32.9202C167.868 32.5423 168.651 32.4405 169.386 32.6369C170.121 32.8333 170.749 33.312 171.131 33.9683Z" fill="white"/>
<path d="M335 260.476C335 260.583 261.819 260.662 171.593 260.662C81.366 260.662 8.18555 260.583 8.18555 260.476C8.18555 260.368 81.3444 260.289 171.629 260.289C261.913 260.289 335 260.375 335 260.476Z" fill="#263238"/>
<path d="M242.535 260.655C244.224 258.092 246.503 255.968 249.181 254.459C251.859 252.951 254.859 252.102 257.933 251.983C268.45 251.624 273.705 260.655 273.705 260.655H242.535Z" fill="#455A64"/>
<path d="M262.691 260.375C262.552 259.861 262.448 259.338 262.381 258.81C261.816 256.32 260.327 254.135 258.213 252.694C257.748 252.434 257.298 252.146 256.867 251.832C257.411 251.915 257.929 252.116 258.386 252.421C259.533 253.089 260.517 254.004 261.264 255.099C262.011 256.195 262.504 257.443 262.705 258.753C262.818 259.288 262.813 259.842 262.691 260.375Z" fill="#263238"/>
<path d="M236.029 260.274V260.202C236.012 259.146 235.579 258.138 234.823 257.398C234.067 256.658 233.05 256.244 231.99 256.246H142.484C141.413 256.246 140.385 256.67 139.628 257.426C138.871 258.181 138.445 259.205 138.445 260.274H236.029Z" fill="#455A64"/>
<path d="M64.6738 103.87C64.6738 105.751 66.1135 217.86 66.1135 217.86L149.617 237.897H156.477L152.086 81.3926H145.809L64.6738 103.87Z" fill="#263238"/>
<path d="M82.3319 213.201L56.4531 260.497H80.1076C75.8748 260.081 117.54 260.497 117.54 260.497L80.1076 250.597L91.8196 224.07L90.819 213.201H82.3319Z" fill="#263238"/>
<path d="M82.9077 221.932L80.1074 133.772L105.533 131.346L108.664 225.471L99.5867 225.93L82.9077 221.932Z" fill="#263238"/>
<path d="M112.222 228.959C112.222 228.959 112.222 228.823 112.222 228.55C112.222 228.277 112.222 227.868 112.222 227.344C112.222 226.267 112.222 224.695 112.222 222.663C112.222 218.564 112.186 212.612 112.164 205.125C112.164 190.142 112.128 169.057 112.099 144.605L112.279 144.784H82.2252L82.4123 144.598V148.661C82.4123 172.51 82.4123 194.701 82.3763 213.194V213.23C74.5875 227.466 68.1304 239.283 63.6097 247.539C61.3494 251.66 59.5713 254.89 58.3548 257.101C57.7501 258.193 57.2822 259.025 56.9655 259.607C56.6487 260.188 56.4688 260.454 56.4688 260.454C56.4688 260.454 56.6199 260.153 56.9223 259.585C57.2246 259.018 57.6853 258.15 58.2684 257.051C59.4705 254.833 61.2198 251.588 63.4513 247.453L82.0956 213.079V213.158C82.0956 194.665 82.0956 172.474 82.0956 148.625V144.375H112.459V144.554C112.459 169.007 112.409 190.092 112.394 205.074C112.394 212.555 112.351 218.514 112.337 222.613C112.337 224.645 112.337 226.203 112.337 227.294C112.337 227.818 112.337 228.22 112.337 228.5C112.337 228.78 112.222 228.959 112.222 228.959Z" fill="#455A64"/>
<path d="M91.8195 224.07C91.9131 224.106 88.3138 232.413 83.7787 242.607C79.2436 252.801 75.486 261.043 75.3924 261C75.2988 260.957 78.8981 252.658 83.4332 242.456C87.9683 232.255 91.7259 224.027 91.8195 224.07Z" fill="#455A64"/>
<path d="M149.581 237.926C149.581 237.926 149.581 237.789 149.581 237.524C149.581 237.258 149.581 236.849 149.581 236.339C149.581 235.284 149.545 233.754 149.524 231.787C149.524 227.839 149.401 222.124 149.265 215.06C148.998 200.932 148.358 181.426 147.573 159.881C146.788 138.337 146.191 118.81 145.989 104.681C145.881 97.617 145.831 91.8952 145.853 87.9467C145.853 85.9797 145.853 84.4505 145.853 83.3952C145.853 82.8855 145.853 82.4978 145.853 82.2106C145.853 81.9235 145.853 81.8086 145.853 81.8086C145.853 81.8086 145.853 81.945 145.853 82.2106C145.853 82.4762 145.853 82.8855 145.853 83.3952C145.853 84.4505 145.853 85.9797 145.91 87.9467C145.91 91.8952 146.025 97.6098 146.169 104.674C146.479 118.803 147.12 138.33 147.904 159.867C148.689 181.404 149.286 200.924 149.488 215.053C149.596 222.117 149.639 227.839 149.625 231.787C149.625 233.754 149.625 235.284 149.625 236.339C149.625 236.849 149.625 237.244 149.625 237.524C149.625 237.804 149.581 237.926 149.581 237.926Z" fill="#455A64"/>
<path d="M107.664 143.951C107.772 143.951 107.851 162.703 107.851 185.827C107.851 208.951 107.772 227.703 107.664 227.703C107.556 227.703 107.477 208.958 107.477 185.827C107.477 162.696 107.563 143.951 107.664 143.951Z" fill="#455A64"/>
<path d="M62.6813 253.117C62.5451 252.961 62.4245 252.793 62.3213 252.614C62.199 252.442 62.0622 252.234 61.9038 251.997C61.7134 251.715 61.5403 251.423 61.3855 251.121C60.3301 249.221 59.5611 247.177 59.1036 245.054C58.4396 241.9 58.2889 238.659 58.6573 235.456C59.1078 231.535 60.1615 227.707 61.7815 224.106C62.6385 222.247 63.7347 220.507 65.0424 218.93C65.3402 218.539 65.6598 218.165 65.9998 217.81C66.3309 217.451 66.6477 217.092 66.9788 216.747C67.6987 216.094 68.3249 215.426 69.0376 214.859C70.3509 213.745 71.7492 212.734 73.22 211.837C73.9398 211.449 74.5949 211.04 75.2715 210.717C75.9482 210.394 76.5889 210.049 77.2367 209.819C79.2374 208.965 81.3518 208.403 83.5139 208.154C84.0983 208.074 84.6878 208.038 85.2775 208.046C85.4835 208.029 85.6906 208.029 85.8966 208.046C85.6942 208.081 85.4899 208.102 85.2847 208.111C84.6987 208.138 84.1147 208.197 83.5355 208.29C81.3982 208.593 79.3127 209.188 77.3375 210.056C76.6969 210.293 76.0778 210.652 75.4011 210.961C74.7245 211.27 74.0766 211.679 73.3783 212.095C71.93 212.996 70.5534 214.006 69.2607 215.118C68.5409 215.677 67.9146 216.345 67.2308 216.991C66.9068 217.329 66.5901 217.709 66.2662 218.039C65.935 218.394 65.6226 218.765 65.3303 219.152C64.0434 220.708 62.9643 222.424 62.1198 224.257C60.5155 227.82 59.4645 231.606 59.0028 235.485C58.6207 238.652 58.7422 241.86 59.3627 244.99C59.7978 247.097 60.5246 249.134 61.5223 251.042C61.6655 251.349 61.829 251.646 62.0118 251.932L62.3933 252.571C62.5014 252.746 62.5976 252.929 62.6813 253.117Z" fill="#455A64"/>
</svg>
